<?xml version="1.0" standalone="no"?>
<!DOCTYPE svg PUBLIC "-//W3C//DTD SVG 1.1//EN" "http://www.w3.org/Graphics/SVG/1.1/DTD/svg11.dtd" >
<svg xmlns="http://www.w3.org/2000/svg" xmlns:xlink="http://www.w3.org/1999/xlink" version="1.1">
<metadata></metadata>
<defs>
<font id="blue_highwaybold" horiz-adv-x="1165" >
<font-face units-per-em="2048" ascent="1556" descent="-492" />
<missing-glyph horiz-adv-x="614" />
<glyph unicode="&#x28;C&#x29;" horiz-adv-x="1626" d="M78 735q0 156 57.5 294t156.5 240.5t233 162t286 59.5t286 -59.5t233.5 -162t157.5 -240.5t58 -294q0 -158 -58 -295t-157.5 -239.5t-233.5 -161.5t-286 -59t-286 59t-233 161.5t-156.5 239.5t-57.5 295zM227 735q0 -121 46 -227.5t125 -185t185.5 -124.5t227.5 -46 q123 0 229.5 46t185.5 124.5t125 185t46 227.5q0 123 -46 229.5t-125 185.5t-185.5 125t-229.5 46q-121 0 -227.5 -46t-185.5 -125t-125 -185.5t-46 -229.5zM469 745q0 92 24.5 170t68.5 136.5t107.5 91.5t143.5 33q195 0 291 -166l-135 -84q-35 47 -72 66.5t-84 19.5 q-88 0 -137 -72t-49 -195q0 -117 52 -192.5t138 -75.5q41 0 83 22.5t71 55.5l125 -86q-104 -158 -283 -158q-76 0 -138.5 33t-108.5 91.5t-71.5 137t-25.5 172.5z" />
<glyph unicode="&#x28;R&#x29;" horiz-adv-x="1626" d="M78 735q0 156 57.5 294t156.5 240.5t233 162t286 59.5t286 -59.5t233.5 -162t157.5 -240.5t58 -294q0 -158 -58 -295t-157.5 -239.5t-233.5 -161.5t-286 -59t-286 59t-233 161.5t-156.5 239.5t-57.5 295zM227 735q0 -121 46 -227.5t125 -185t185.5 -124.5t227.5 -46 q123 0 229.5 46t185.5 124.5t125 185t46 227.5q0 123 -46 229.5t-125 185.5t-185.5 125t-229.5 46q-121 0 -227.5 -46t-185.5 -125t-125 -185.5t-46 -229.5zM553 324v841h313q117 0 186.5 -68.5t69.5 -191.5q0 -180 -147 -243l160 -338h-164l-148 319h-118v-319h-152z M705 793h159q111 0 111 106q0 117 -111 117h-159v-223z" />
<glyph horiz-adv-x="0" />
<glyph unicode="&#xd;" horiz-adv-x="614" />
<glyph horiz-adv-x="614" />
<glyph unicode=" "  horiz-adv-x="614" />
<glyph unicode="&#x09;" horiz-adv-x="614" />
<glyph unicode="&#xa0;" horiz-adv-x="614" />
<glyph unicode="!" horiz-adv-x="514" d="M117 168q0 74 39 122t102 48q53 0 96 -48t43 -122q0 -70 -42 -119t-97 -49q-63 0 -102 49t-39 119zM123 854v616h264v-614l-55 -424h-139z" />
<glyph unicode="&#x22;" horiz-adv-x="710" d="M76 877zM76 1544h227l-43 -667h-149zM406 1544h227l-43 -667h-149z" />
<glyph unicode="#" horiz-adv-x="1323" d="M76 356v213h264l68 340h-238v215h283l65 346h180l-65 -346h227l76 346h174l-72 -346h211v-215h-252l-73 -340h235v-213h-272l-78 -356h-172l70 356h-232l-74 -356h-174l70 356h-221zM518 565h230l75 348h-237z" />
<glyph unicode="$" horiz-adv-x="1087" d="M84 227l84 246q57 -35 122.5 -58.5t131.5 -33.5v295q-166 51 -252 141t-86 221q0 113 86 187.5t252 111.5v133h246v-120q82 -14 156.5 -38t127.5 -61l-73 -252q-41 27 -94.5 45.5t-116.5 36.5v-188q166 -41 253 -133.5t87 -233.5q0 -162 -87 -260t-253 -133v-133h-246 v129q-182 25 -338 98zM348 1024q0 -31 19.5 -49.5t54.5 -30.5v172q-35 -16 -54.5 -34.5t-19.5 -57.5zM668 389q41 16 65.5 42t24.5 73q0 39 -22.5 76.5t-67.5 42.5v-234z" />
<glyph unicode="%" horiz-adv-x="1699" d="M102 0zM103 1085q0 199 75.5 307.5t229.5 108.5t229.5 -108.5t75.5 -307.5q0 -203 -74.5 -312.5t-228.5 -109.5q-147 0 -227 108.5t-80 313.5zM164 0l1153 1470h217l-1157 -1470h-213zM267 1085q0 -256 141 -256q143 0 143 256q0 129 -32.5 191.5t-110.5 62.5 q-141 0 -141 -254zM989 389q0 199 75.5 307.5t229.5 108.5t229.5 -108.5t75.5 -307.5q0 -203 -74.5 -312.5t-228.5 -109.5q-147 0 -227 108.5t-80 313.5zM1153 389q0 -256 141 -256q143 0 143 256q0 129 -32.5 191.5t-110.5 62.5q-141 0 -141 -254z" />
<glyph unicode="&#x26;" horiz-adv-x="1415" d="M59 420q0 74 13.5 125t40 91t62.5 72.5t83 69.5l23 23q-78 86 -120 172t-42 184t41 163.5t105.5 105.5t140 56.5t147.5 16.5q385 0 393 -340l-278 -100q-18 186 -133 186q-123 0 -123 -131q0 -74 219 -293q8 -12 70.5 -74.5t187.5 -181.5q18 51 34.5 120t20.5 161h283 v-98q0 -117 -30 -215.5t-81 -190.5l299 -340h-379l-116 131q-199 -162 -385 -162q-106 0 -193.5 32t-150 90.5t-97.5 141t-35 185.5zM356 471q0 -41 17.5 -80t45 -69.5t63.5 -49t71 -18.5q104 0 174 100l-274 275l-43 -33q-53 -66 -54 -125z" />
<glyph unicode="'" horiz-adv-x="380" d="M76 1544h227l-43 -667h-149z" />
<glyph unicode="(" horiz-adv-x="743" d="M188 582q0 489 265 948h254q-309 -420 -310 -948q0 -473 303 -949h-247q-264 457 -265 949z" />
<glyph unicode=")" horiz-adv-x="739" d="M37 1530h250q137 -233 200.5 -462.5t63.5 -485.5t-63.5 -485.5t-200.5 -463.5h-248q82 125 140.5 240t95 228.5t53 231.5t16.5 249q0 135 -19.5 258t-58.5 238.5t-96 226t-133 225.5z" />
<glyph unicode="*" horiz-adv-x="1224" d="M59 1145l91 164l372 -219l-10 434h184v-434l369 227l96 -162l-377 -213l379 -205l-92 -164l-371 220l11 -435h-183v433l-370 -228l-95 164l375 213z" />
<glyph unicode="+" d="M63 612v228h406v403h227v-403h404v-228h-404v-405h-227v405h-406z" />
<glyph unicode="," horiz-adv-x="462" d="M88 168q0 74 39 122t102 48q53 0 97.5 -48t44.5 -122q0 -63 -14.5 -123.5t-44 -109t-76 -78t-109.5 -33.5v78q45 14 70.5 33.5t31.5 64.5h-4q-63 0 -100 49t-37 119z" />
<glyph unicode="-" horiz-adv-x="514" d="M45 662v260h424v-260h-424z" />
<glyph unicode="." horiz-adv-x="485" d="M102 168q0 74 37 122t103 48q51 0 95 -48t44 -122q0 -35 -12.5 -65.5t-32 -53t-44.5 -36t-50 -13.5q-66 0 -103 49t-37 119z" />
<glyph unicode="/" horiz-adv-x="833" d="M25 -197l565 1727h217l-565 -1727h-217z" />
<glyph unicode="0" horiz-adv-x="1292" d="M102 737q0 358 138.5 556t406.5 198q272 0 408.5 -197.5t136.5 -556.5q0 -360 -134.5 -558.5t-406.5 -198.5q-262 0 -405.5 195.5t-143.5 561.5zM362 737q0 -254 72 -373.5t213 -119.5t214 119.5t73 373.5q0 248 -64.5 371t-222.5 123q-147 0 -216 -123t-69 -371z" />
<glyph unicode="1" horiz-adv-x="579" d="M59 1104v239q150 16 170 127h220v-1470h-261v1104h-129z" />
<glyph unicode="2" horiz-adv-x="1099" d="M109 0v139q0 131 22.5 226.5t61 165t90 120.5t110.5 94q82 61 143.5 93t103.5 60t63.5 62.5t21.5 100.5q0 154 -166 153q-80 0 -143.5 -33.5t-128.5 -138.5l-176 234q84 115 195.5 165t264.5 50q88 0 165 -23.5t133.5 -75t88 -132t31.5 -193.5q0 -119 -41 -200 t-104.5 -141t-137 -106.5t-139 -96.5t-112.5 -111.5t-56 -151.5h590v-260h-880z" />
<glyph unicode="3" horiz-adv-x="1069" d="M90 227l223 160q33 -66 82 -105.5t119 -39.5q92 0 145.5 54t53.5 148q0 63 -14.5 105.5t-42 67t-66.5 35t-86 10.5h-111v260h111q66 0 105.5 43t39.5 125q0 63 -38 102t-103 39q-106 0 -133 -94l-223 90q94 264 360 264q180 0 280.5 -96.5t100.5 -288.5q0 -104 -43 -176 t-109 -107q111 -47 172.5 -132t61.5 -226q0 -248 -117 -365.5t-346 -119.5q-147 0 -251.5 65.5t-170.5 181.5z" />
<glyph unicode="4" horiz-adv-x="1134" d="M55 365v249l568 856h270v-843h156v-262h-156v-365h-260v365h-578zM336 627h297v448z" />
<glyph unicode="5" horiz-adv-x="1138" d="M109 109l131 251q88 -61 157.5 -86.5t132.5 -25.5q51 0 98.5 14t81 45t54 77t20.5 110q0 63 -17 110t-46 78t-67 45t-76 14q-86 0 -127 -24.5t-78 -81.5l-246 104l63 731h764v-260h-536l-21 -252q45 29 92.5 38.5t96.5 9.5q217 0 334.5 -129t117.5 -359 q0 -264 -127.5 -400t-373.5 -136q-125 0 -227.5 29.5t-200.5 97.5z" />
<glyph unicode="6" horiz-adv-x="1073" d="M92 571q0 180 48 342t133 285t202 199t254 84l43 -252q-131 -10 -238.5 -93t-156.5 -245q47 41 103.5 63.5t107.5 22.5q88 0 160.5 -35t126 -98.5t83 -151.5t29.5 -194q0 -260 -112.5 -389t-327.5 -129q-109 0 -193 41.5t-142 118.5t-89 186.5t-31 244.5zM352 485 q0 -119 52.5 -182t144.5 -63t144 62.5t52 178.5q0 117 -54 180.5t-142 63.5q-92 0 -144.5 -61.5t-52.5 -178.5z" />
<glyph unicode="7" horiz-adv-x="1054" d="M88 1210v260h901v-280q-92 -80 -170 -210t-134 -287.5t-88 -336t-34 -356.5h-280q10 180 37.5 352t74.5 328t112.5 291t151.5 239h-571z" />
<glyph unicode="8" horiz-adv-x="1085" d="M94 455q0 135 55.5 241.5t137.5 153.5q-55 53 -76 120.5t-21 143.5q0 86 25 155.5t70 119t110.5 77t149.5 27.5q180 0 273 -94t93 -287q0 -80 -22.5 -147.5t-89.5 -124.5q49 -18 87 -57.5t63.5 -91.5t38.5 -113.5t13 -122.5q0 -229 -121.5 -352t-330.5 -123 q-211 0 -333 122.5t-122 352.5zM358 463q0 -98 54.5 -159.5t136.5 -61.5q86 0 139 58t53 163q0 106 -47 163.5t-145 57.5q-82 0 -136.5 -55.5t-54.5 -165.5zM420 1102q0 -66 34.5 -107t94.5 -41q59 0 92 42t33 106q0 72 -33 112.5t-92 40.5q-63 0 -96 -44t-33 -109z" />
<glyph unicode="9" horiz-adv-x="1079" d="M84 975q0 260 125 388t342 128q104 0 185 -42t136.5 -119t84 -186.5t28.5 -244.5q0 -178 -48 -341t-134 -289t-204 -202.5t-259 -82.5l-31 247q125 10 230.5 98.5t154.5 243.5q-45 -35 -101 -56t-110 -21q-88 0 -161.5 34.5t-126 98t-82 151.5t-29.5 195zM334 991 q0 -117 51 -180t137 -63q92 0 145.5 61t53.5 178t-50 178.5t-139 61.5q-92 0 -145 -59.5t-53 -176.5z" />
<glyph unicode=":" horiz-adv-x="518" d="M117 168q0 74 41 122t104 48q55 0 96 -48t41 -122q0 -70 -41 -119t-96 -49q-63 0 -104 49t-41 119zM117 940q0 74 41 121t104 47q55 0 96 -47t41 -121t-41 -121t-96 -47q-63 0 -104 47t-41 121z" />
<glyph unicode=";" horiz-adv-x="524" d="M125 168q0 74 39 122t104 48q55 0 99.5 -48t44.5 -122q0 -147 -61.5 -238.5t-186.5 -107.5v80q94 33 110 100l-10 -2q-63 0 -101 49t-38 119zM125 940q0 74 39 121t104 47q55 0 99.5 -47t44.5 -121t-43.5 -121t-100.5 -47q-66 0 -104.5 47t-38.5 121z" />
<glyph unicode="&#x3c;" d="M63 612v228l1037 389v-228l-764 -276l764 -274v-228z" />
<glyph unicode="=" d="M63 305v227h1037v-227h-1037zM63 920v227h1037v-227h-1037z" />
<glyph unicode="&#x3e;" d="M63 223v228l764 274l-764 276v228l1037 -389v-228z" />
<glyph unicode="?" horiz-adv-x="962" d="M78 1309q76 100 179 141t241 41q180 0 286.5 -98.5t106.5 -290.5q0 -72 -18.5 -127t-49 -102.5t-70.5 -88.5t-83 -79q-35 -33 -54.5 -64t-28.5 -65.5t-11.5 -75.5t-2.5 -90h-262v43q0 137 42 246.5t128 181.5q41 35 67.5 60.5t42 49t20.5 49t5 62.5q0 119 -124 119 q-78 0 -148 -28t-129 -103zM297 168q0 74 44 122t103 48q63 0 102.5 -48t39.5 -122q0 -70 -39.5 -119t-102.5 -49q-31 0 -57.5 13.5t-45.5 36t-31.5 53t-12.5 65.5z" />
<glyph unicode="@" horiz-adv-x="1302" d="M82 563q0 174 46 317.5t127 246t190.5 157.5t236.5 55q119 0 223.5 -39.5t182 -119.5t121.5 -201t44 -283q0 -94 -18 -173t-56 -136t-94.5 -89t-132.5 -32q-47 0 -82.5 15.5t-56.5 50.5q-29 -29 -75 -48.5t-99 -19.5q-111 0 -166 83t-55 237q0 78 19.5 134t52 93 t73.5 54.5t84 17.5q47 0 79 -14.5t48 -32.5v41h131v-418q14 -37 64 -37q41 0 67.5 58.5t26.5 193.5q0 252 -94.5 371.5t-268.5 119.5q-115 0 -195.5 -47t-131.5 -127t-74 -184.5t-23 -218.5q0 -229 97.5 -380t296.5 -192l-31 -186q-141 23 -245.5 88.5t-173 162.5 t-103.5 220t-35 262zM580 584q0 -72 22.5 -113t63.5 -41q53 0 79 27v254q-14 18 -29 23t-38 5q-55 0 -76.5 -49t-21.5 -106z" />
<glyph unicode="A" horiz-adv-x="1228" d="M12 0l434 1470h336l435 -1470h-285l-78 274h-481l-76 -274h-285zM442 535h340l-172 595z" />
<glyph unicode="B" d="M123 0v1470h483q80 0 152.5 -26.5t127 -76.5t86.5 -126t32 -174q0 -86 -27 -149.5t-76 -110.5q41 -16 79 -46t66.5 -73t46 -101.5t17.5 -131.5q0 -217 -127 -336t-369 -119h-491zM387 260h268q74 0 122 49t48 137q0 86 -47 132.5t-116 46.5h-275v-365zM387 885h225 q55 0 94 50t39 116t-38.5 112.5t-94.5 46.5h-225v-325z" />
<glyph unicode="C" horiz-adv-x="1306" d="M102 737q0 160 42 298.5t120 239.5t188.5 158.5t249.5 57.5q342 0 510 -291l-237 -147q-59 80 -125 114.5t-148 34.5q-154 0 -239.5 -124t-85.5 -341q0 -102 24.5 -187t69.5 -147.5t105.5 -97.5t134.5 -35q70 0 143.5 39t124.5 94l219 -149q-184 -274 -496 -274 q-133 0 -242.5 57t-189.5 158.5t-124 239.5t-44 302z" />
<glyph unicode="D" horiz-adv-x="1325" d="M123 0v1470h426q150 0 276.5 -55t218 -152.5t142.5 -231.5t51 -290q0 -174 -53.5 -311t-146.5 -232.5t-222 -146.5t-280 -51h-412zM387 264h115q109 0 195.5 36t147 99.5t93.5 150.5t33 189q0 104 -33 191.5t-93.5 149t-147.5 96t-195 34.5h-115v-946z" />
<glyph unicode="E" horiz-adv-x="1048" d="M123 0v1470h811v-260h-547v-325h340v-260h-340v-365h547v-260h-811z" />
<glyph unicode="F" horiz-adv-x="985" d="M123 0v1470h811v-260h-547v-325h348v-260h-348v-625h-264z" />
<glyph unicode="G" horiz-adv-x="1361" d="M102 737q0 174 39 313.5t115 237.5t186.5 150.5t255.5 52.5q172 0 295 -66.5t221 -228.5l-251 -168q-20 41 -51 75t-67 58.5t-74 37.5t-73 13q-323 0 -323 -472q0 -109 22.5 -198t65.5 -153.5t102.5 -101.5t132.5 -37q111 0 181.5 64.5t87.5 187.5h-273v262h580v-119 q0 -127 -44 -246.5t-121 -213t-182.5 -149.5t-228.5 -56q-133 0 -243.5 58t-188.5 159.5t-121 239.5t-43 300z" />
<glyph unicode="H" horiz-adv-x="1265" d="M123 0v1470h264v-585h494v585h262v-1470h-262v625h-494v-625h-264z" />
<glyph unicode="I" horiz-adv-x="526" d="M131 0v1470h264v-1470h-264z" />
<glyph unicode="J" horiz-adv-x="802" d="M0 16l27 246q51 -14 129 -14q129 0 200.5 70.5t71.5 238.5v913h264v-927q0 -109 -33.5 -209.5t-98 -177t-156 -121.5t-205.5 -45q-78 0 -125 7t-74 19z" />
<glyph unicode="K" horiz-adv-x="1196" d="M123 0v1470h264v-706l463 706h315l-432 -639l459 -831h-301l-328 571l-176 -264v-307h-264z" />
<glyph unicode="L" horiz-adv-x="1013" d="M123 0v1470h264v-1210h590v-260h-854z" />
<glyph unicode="M" horiz-adv-x="1476" d="M123 0v1470h332l295 -811l286 811h318v-1470h-264v915l-332 -935h-19l-352 935v-915h-264z" />
<glyph unicode="N" horiz-adv-x="1284" d="M123 0v1470h303l473 -927v927h262v-1470h-282l-494 971v-971h-262z" />
<glyph unicode="O" horiz-adv-x="1396" d="M102 737q0 174 45.5 314.5t125 237.5t188 149.5t237.5 52.5t239 -52.5t189.5 -149.5t123.5 -237.5t44 -314.5q0 -176 -43 -316t-120.5 -238.5t-185 -150.5t-234.5 -52q-129 0 -241 51t-193.5 148t-128 238.5t-46.5 319.5zM362 737q0 -123 27 -216t72 -154.5t106.5 -92 t130.5 -30.5q72 0 133.5 30.5t106.5 92t70.5 154.5t25.5 216q0 248 -87 371t-249 123q-147 0 -241.5 -123t-94.5 -371z" />
<glyph unicode="P" horiz-adv-x="1159" d="M123 0v1470h549q100 0 183 -31.5t141.5 -90t90 -143.5t31.5 -189q0 -111 -33.5 -196t-95 -143.5t-148.5 -88t-192 -29.5h-262v-559h-264zM387 821h279q192 0 192 183q0 206 -190 206h-2h-279v-389z" />
<glyph unicode="Q" horiz-adv-x="1396" d="M102 737q0 174 45.5 314.5t125 237.5t188 149.5t237.5 52.5t239 -52.5t189.5 -149.5t123.5 -237.5t44 -314.5q0 -178 -42 -316t-119 -237l108 -141l-199 -158l-102 146q-104 -51 -229 -51q-129 0 -241 51t-193.5 148t-128 238.5t-46.5 319.5zM362 733q0 -125 27 -218 t72 -154.5t106.5 -92t130.5 -30.5q23 0 42.5 3t39.5 7l-196 256l196 168l187 -266q33 59 50 141t17 186q0 254 -87 376t-249 122q-147 0 -241.5 -123t-94.5 -375z" />
<glyph unicode="R" horiz-adv-x="1200" d="M123 0v1470h549q100 0 183 -30.5t141.5 -89t90 -143.5t31.5 -191q0 -311 -258 -424l279 -592h-285l-260 559h-207v-559h-264zM387 821h279q192 0 192 183q0 206 -190 206h-2h-279v-389z" />
<glyph unicode="S" horiz-adv-x="1114" d="M86 119l102 256q76 -57 165 -94t188 -37q111 0 163 48t52 134q0 37 -16.5 64.5t-45 52t-70.5 49t-92 53.5q-61 35 -135.5 71t-139 87t-109 122.5t-44.5 180.5q0 94 38 165.5t102.5 121t148.5 74t174 24.5q117 0 218.5 -25.5t183.5 -87.5l-76 -270q-72 59 -147.5 86 t-180.5 27q-92 0 -146 -29t-54 -76q0 -66 65.5 -110.5t181.5 -106.5q92 -49 169 -99t132.5 -107.5t86 -126t30.5 -154.5q0 -223 -134.5 -327.5t-363.5 -104.5q-113 0 -233.5 35.5t-212.5 103.5z" />
<glyph unicode="T" horiz-adv-x="1118" d="M45 1210v260h1028v-260h-371v-1210h-282v1210h-375z" />
<glyph unicode="U" horiz-adv-x="1249" d="M115 526v944h262v-935q0 -162 65.5 -228.5t190.5 -66.5q117 0 177 66.5t60 228.5v935h265v-935q0 -127 -33 -230.5t-97.5 -175.5t-157.5 -110.5t-214 -38.5q-123 0 -220.5 38.5t-163 109.5t-100 172t-34.5 226z" />
<glyph unicode="V" horiz-adv-x="1228" d="M12 1470h285l315 -1132l318 1132h287l-441 -1470h-336z" />
<glyph unicode="W" horiz-adv-x="1828" d="M16 1470h285l240 -1097l241 1097h265l243 -1097l238 1097h284l-356 -1470h-336l-207 860l-211 -860h-335z" />
<glyph unicode="X" horiz-adv-x="1226" d="M25 0l434 741l-434 729h315l283 -499l290 499h289l-428 -731l428 -739h-315l-283 510l-285 -510h-294z" />
<glyph unicode="Y" horiz-adv-x="1171" d="M8 1470h297l283 -614l282 614h293l-432 -907v-563h-289v559z" />
<glyph unicode="Z" horiz-adv-x="1095" d="M84 0v260l629 950h-629v260h942v-264l-635 -946h637v-260h-944z" />
<glyph unicode="[" horiz-adv-x="706" d="M209 -367v1897h446v-207h-256v-1481h256v-209h-446z" />
<glyph unicode="\" horiz-adv-x="833" d="M25 1530h217l565 -1727h-217z" />
<glyph unicode="]" horiz-adv-x="706" d="M51 -158h256v1481h-256v207h447v-1897h-447v209z" />
<glyph unicode="^" d="M80 434l389 1036h227l389 -1036h-227l-276 764l-275 -764h-227z" />
<glyph unicode="_" horiz-adv-x="1183" d="M0 18h1184v-227h-1184v227z" />
<glyph unicode="`" horiz-adv-x="690" d="M82 1450l115 174l411 -307l-90 -135z" />
<glyph unicode="a" horiz-adv-x="1042" d="M61 397q0 201 113 301.5t297 100.5q49 0 99.5 -9.5t91.5 -37.5q-14 82 -55.5 115.5t-119.5 33.5q-63 0 -108 -21.5t-88 -58.5l-119 203q59 66 145 103.5t187 37.5q94 0 172 -30.5t132 -87t84 -137.5t30 -179v-731h-263v63q-35 -35 -95 -59t-132 -24q-78 0 -144.5 29.5 t-117.5 83.5t-80 131t-29 173zM374 295.5q50 -39.5 120 -39.5q102 0 163 74v162q-16 29 -55 48t-86 19q-192 0 -192 -154q0 -70 50 -109.5z" />
<glyph unicode="b" horiz-adv-x="1132" d="M123 0v1407l264 115v-432q39 35 99.5 55t123.5 20q98 0 177 -43t132.5 -121.5t82 -191.5t28.5 -250q0 -121 -30.5 -226.5t-87 -184t-137.5 -123.5t-181 -45q-127 0 -207 86v-66h-264zM387 367q16 -47 63.5 -83t114.5 -36q51 0 91 24.5t67 67.5t41 99.5t14 119.5 q0 162 -49 248t-172 86q-61 0 -107.5 -37t-62.5 -92v-397z" />
<glyph unicode="c" horiz-adv-x="1019" d="M102 582q0 125 35 232.5t98.5 185t151.5 121.5t195 44q123 0 201.5 -45t131.5 -121l-200 -172q-23 37 -53.5 54.5t-79.5 17.5q-98 0 -154.5 -86t-56.5 -233q0 -162 50 -247t161 -85q84 0 151 76l213 -152q-80 -104 -165.5 -148t-198.5 -44t-202 43t-150.5 121.5 t-94.5 189t-33 248.5z" />
<glyph unicode="d" horiz-adv-x="1142" d="M102 557q0 129 30 240.5t86 192.5t136 128t183 47q78 0 129 -15t92 -46v303l262 115v-1520h-262v76q-41 -35 -95.5 -66.5t-144.5 -31.5q-94 0 -171 41.5t-131 118.5t-84 183.5t-30 233.5zM365 557q0 -141 54 -221t154 -80q72 0 118 44t67 103v330q-23 61 -72 101t-108 40 q-117 0 -165 -81.5t-48 -235.5z" />
<glyph unicode="e" horiz-adv-x="1116" d="M102 555q0 143 35 257t97.5 192.5t150.5 119.5t195 41q100 0 184 -35.5t143.5 -108.5t92 -182.5t32.5 -256.5q0 -70 -2 -106t-6 -52h-657q6 -43 27.5 -76t51 -56.5t65.5 -34.5t73 -11q51 0 92 17.5t76 64.5l178 -168q-76 -98 -160 -139t-195 -41q-229 0 -351 147 t-122 428zM367 680h401q-12 100 -62 164.5t-128 64.5q-86 0 -143.5 -64.5t-67.5 -164.5z" />
<glyph unicode="f" horiz-adv-x="610" d="M25 885v260h108v35q0 178 85 268t239 90q43 0 72.5 -5t56.5 -13v-242q-23 8 -46.5 12t-56.5 4q-59 0 -80.5 -28.5t-21.5 -85.5v-35h207v-260h-193v-885h-262v885h-108z" />
<glyph unicode="g" horiz-adv-x="1122" d="M94 590q0 119 34 223.5t92.5 182t139 122.5t175.5 45q59 0 107 -17.5t91 -49.5v49h262v-1039q0 -100 -30.5 -198t-90 -179t-147.5 -136.5t-201 -69.5l-45 274q98 16 165 76.5t81 165.5q-29 -23 -78 -36t-123 -13q-113 0 -194.5 47t-134 128t-78 190.5t-25.5 234.5z M365 586q0 -162 46 -247t150 -85q127 0 172 94v436q-18 61 -58 87t-91 26q-117 0 -168 -79t-51 -232z" />
<glyph unicode="h" horiz-adv-x="1085" d="M123 0v1407l264 115v-461q86 104 236 104q86 0 153.5 -30.5t113.5 -87t69.5 -135t23.5 -175.5v-737h-262v717q0 76 -40 130t-130 54q-59 0 -103.5 -33.5t-60.5 -89.5v-778h-264z" />
<glyph unicode="i" horiz-adv-x="503" d="M111 1374q0 74 37.5 122t105.5 48q57 0 99 -48t42 -122q0 -72 -43 -119t-98 -47q-68 0 -105.5 47.5t-37.5 118.5zM121 0v1145h264v-1145h-264z" />
<glyph unicode="j" horiz-adv-x="542" d="M4 -223q86 23 121 82t35 188v1098h260v-1145q0 -190 -98.5 -319.5t-296.5 -157.5zM147 1374q0 74 43 122t101 48q68 0 105.5 -48t37.5 -122q0 -72 -38.5 -119t-104.5 -47q-57 0 -100.5 47.5t-43.5 118.5z" />
<glyph unicode="k" horiz-adv-x="1026" d="M123 0v1407l264 115v-736l279 359h323l-338 -445l355 -700h-295l-240 489l-84 -102v-387h-264z" />
<glyph unicode="l" horiz-adv-x="507" d="M123 0v1407l262 115v-1522h-262z" />
<glyph unicode="m" horiz-adv-x="1679" d="M123 0v1145h264v-84q86 104 236 104q98 0 158.5 -30.5t92.5 -75.5q55 55 137.5 80.5t174.5 25.5q94 0 167.5 -29.5t123 -82t75 -125t25.5 -158.5v-770h-262v735q0 61 -41 113.5t-129 52.5q-59 0 -102.5 -36t-59.5 -95v-770h-262v735q0 61 -41 113.5t-129 52.5 q-59 0 -103.5 -33.5t-60.5 -89.5v-778h-264z" />
<glyph unicode="n" horiz-adv-x="1085" d="M123 0v1145h264v-84q86 104 236 104q94 0 162.5 -30.5t112.5 -87t64.5 -135t20.5 -175.5v-737h-262v717q0 76 -40 130t-130 54q-59 0 -103.5 -33.5t-60.5 -89.5v-778h-264z" />
<glyph unicode="o" horiz-adv-x="1134" d="M102 573q0 125 34 232.5t94.5 187.5t146.5 126t190 46t190.5 -46t147 -126t94 -187.5t33.5 -232.5t-33.5 -233.5t-94 -188t-147 -125.5t-190.5 -46t-190 46t-146.5 125.5t-94.5 188.5t-34 233zM362 573q0 -143 53.5 -232t151.5 -89t151.5 89t53.5 232t-53 231.5 t-152 88.5q-98 0 -151.5 -88t-53.5 -232z" />
<glyph unicode="p" horiz-adv-x="1142" d="M123 -477v1622h262v-76q41 35 95.5 65.5t144.5 30.5q94 0 170.5 -42t131 -117.5t84 -182t29.5 -233.5q0 -129 -29.5 -240.5t-84 -193.5t-131 -129t-170.5 -47q-92 0 -145.5 16t-94.5 47v-405zM385 395q23 -61 72 -101t108 -40q117 0 165 91t48 245q0 141 -54 224t-155 83 q-72 0 -117.5 -44t-66.5 -103v-355z" />
<glyph unicode="q" horiz-adv-x="1132" d="M102 586q0 121 31 226.5t87 184t137 123.5t182 45q127 0 206 -86v66h265v-1507l-265 -115v532q-41 -29 -100 -52t-123 -23q-98 0 -177 43t-132 121.5t-82 190t-29 251.5zM354 586q0 -162 49 -248t172 -86q61 0 107.5 37t62.5 92v397q-16 47 -63 83t-115 36 q-51 0 -91 -24.5t-66.5 -67.5t-41 -99.5t-14.5 -119.5z" />
<glyph unicode="r" horiz-adv-x="743" d="M123 0v1145h264v-60q63 80 170 80q41 0 79 -13t66 -42l-81 -246q-18 16 -42 26.5t-61 10.5q-59 0 -91 -33.5t-40 -91.5v-776h-264z" />
<glyph unicode="s" horiz-adv-x="944" d="M72 84l90 238q41 -29 112.5 -53.5t157.5 -24.5q98 0 141 31.5t43 80.5q0 39 -30.5 63.5t-98.5 43.5q-92 25 -167.5 51.5t-129 64t-82 93t-28.5 137.5q0 92 32.5 158.5t89 109.5t135.5 62.5t171 19.5q182 0 319 -100l-75 -256q-72 47 -133.5 67.5t-131.5 20.5 q-82 0 -110.5 -19.5t-28.5 -50.5q0 -33 33 -52t79 -33.5t98 -25t93 -24.5q104 -41 165 -117.5t61 -212.5q0 -104 -35 -175.5t-95.5 -116t-143.5 -64.5t-177 -20q-80 0 -174 22.5t-180 81.5z" />
<glyph unicode="t" horiz-adv-x="673" d="M25 885v260h116v213l260 112v-325h197v-260h-197v-539q0 -57 27 -79.5t74 -22.5q35 0 70.5 14t64.5 39l-41 -285q-20 -12 -60 -22t-112 -10q-137 0 -210 91t-73 240v574h-116z" />
<glyph unicode="u" horiz-adv-x="1093" d="M111 408v737h262v-717q0 -76 40 -130t130 -54q59 0 103 33.5t61 89.5v778h264v-1145h-264v84q-86 -104 -236 -104q-96 0 -163.5 30.5t-111.5 87t-64.5 135t-20.5 175.5z" />
<glyph unicode="v" horiz-adv-x="974" d="M20 1145h281l184 -731l191 731h278l-329 -1145h-279z" />
<glyph unicode="w" horiz-adv-x="1529" d="M20 1145h281l164 -703l164 703h272l164 -703l164 703h280l-307 -1145h-278l-158 606l-164 -606h-280z" />
<glyph unicode="x" horiz-adv-x="997" d="M20 1145h314l174 -346l172 346h297l-332 -574l328 -571h-307l-172 346l-175 -346h-292l327 569z" />
<glyph unicode="y" horiz-adv-x="972" d="M20 1145h281l191 -744l182 744h278l-463 -1622h-276l141 497z" />
<glyph unicode="z" horiz-adv-x="958" d="M76 0v221l444 664h-420v260h766v-215l-448 -670h456v-260h-798z" />
<glyph unicode="{" horiz-adv-x="956" d="M88 481v205q86 2 145.5 20.5t98.5 56.5t56.5 99.5t17.5 147.5v155q0 184 84.5 274.5t277.5 90.5h162v-193h-121q-86 0 -128 -42t-42 -142v-186q0 -121 -45 -220.5t-166 -162.5q121 -66 166 -165.5t45 -217.5v-187q0 -100 42 -142t128 -42h121v-192h-162q-193 0 -277.5 90 t-84.5 274v156q0 86 -17.5 146.5t-56.5 99t-98.5 57t-145.5 20.5z" />
<glyph unicode="|" horiz-adv-x="587" d="M199 -367v1897h190v-1897h-190z" />
<glyph unicode="}" horiz-adv-x="956" d="M27 -170h120q86 0 128 42t42 142v187q0 119 45.5 218t165.5 165q-121 63 -166 162.5t-45 220.5v186q0 100 -42 142t-128 42h-120v193h161q193 0 278 -90t85 -275v-155q0 -86 17.5 -147.5t56.5 -99.5t98 -56.5t145 -20.5v-205q-86 -2 -145 -20.5t-98 -57t-56.5 -99 t-17.5 -146.5v-156q0 -184 -85 -274t-278 -90h-161v192z" />
<glyph unicode="~" d="M47 700q59 104 142.5 153.5t175.5 49.5q82 0 140 -26.5t104 -58.5t86 -58.5t85 -26.5q51 0 90 38t72 99l160 -116q-57 -104 -143.5 -159.5t-178.5 -55.5q-74 0 -130 26.5t-103 59t-92 59.5t-95 27q-43 0 -81.5 -36t-71.5 -93z" />
<glyph unicode="&#xa1;" horiz-adv-x="514" d="M117 1303q0 70 42 118.5t97 48.5q63 0 102 -49t39 -118q0 -74 -39 -122t-102 -48q-53 0 -96 48t-43 122zM127 0v614l55 424h140l69 -422v-616h-264z" />
<glyph unicode="&#xa2;" horiz-adv-x="1091" d="M96 727q0 104 23.5 194.5t67.5 161t108.5 120.5t146.5 75v192h246v-184q104 -20 185 -76.5t122 -160.5l-221 -125q-25 63 -86 88v-572q29 12 49.5 34t38.5 52l211 -137q-123 -180 -299 -221v-168h-246v174q-78 25 -142 76t-109.5 122.5t-70 162t-24.5 192.5zM344 727 q0 -78 26.5 -141.5t71.5 -104.5v502q-98 -76 -98 -256z" />
<glyph unicode="&#xa3;" horiz-adv-x="1181" d="M106 0v260h37q66 0 104 42t38 124v233h-88v261h88v137q0 82 20.5 159.5t69.5 139t129 98.5t196 37q123 0 210 -49t124 -148l-192 -155q-31 94 -140 94q-90 0 -120.5 -45t-32.5 -123l-2 -145h266v-261h-266v-241q0 -66 -16.5 -105t-30.5 -53h565v-260h-959z" />
<glyph unicode="&#xa5;" horiz-adv-x="1296" d="M72 1470h325l254 -491l254 491h322l-424 -735h303v-215h-311v-168h311v-215h-311v-137h-289v137h-336v215h336v168h-336v215h322z" />
<glyph unicode="&#xa6;" horiz-adv-x="587" d="M199 340h190v-707h-190v707zM199 823v707h190v-707h-190z" />
<glyph unicode="&#xa7;" horiz-adv-x="1173" d="M76 -33l164 191q33 -37 75.5 -64.5t90 -45t93.5 -27t87 -9.5q39 0 82 6.5t77.5 20.5t58 37.5t23.5 60.5q0 57 -48 93t-118.5 64t-154.5 55.5t-154.5 69.5t-119 105.5t-48.5 163.5q0 78 46 142.5t118 91.5q-82 53 -123 114.5t-41 153.5q0 68 34 123t92.5 95t136 61.5 t165.5 21.5q162 0 284 -50t181 -157l-184 -149q-23 29 -57.5 50t-73.5 36.5t-78 23.5t-70 8q-33 0 -66.5 -5t-61 -16t-45 -27.5t-17.5 -37.5q0 -37 36 -59.5t85 -42.5q84 -33 177 -63.5t172 -76.5t130 -116t51 -180q0 -86 -40 -148.5t-99 -97.5q72 -39 105.5 -103.5 t33.5 -150.5q0 -92 -43 -158.5t-111.5 -109.5t-153.5 -62.5t-171 -19.5q-135 0 -266 42t-254 146zM424 688q0 -41 37 -67.5t89 -46t108.5 -35t97.5 -33.5q35 18 53 42.5t18 65.5q0 39 -18 68t-48 49.5t-68 35t-79 26.5q-33 -2 -66.5 -10.5t-61 -23t-45 -32.5t-17.5 -39z" />
<glyph unicode="&#xa8;" horiz-adv-x="839" d="M82 1450q0 74 37 122t102 48q51 0 95 -48t44 -122q0 -35 -12 -65.5t-31.5 -53t-45 -36t-50.5 -13.5q-66 0 -102.5 49t-36.5 119zM479 1450q0 74 37 122t102 48q51 0 95.5 -48t44.5 -122q0 -35 -12.5 -65.5t-32 -53t-45 -36t-50.5 -13.5q-66 0 -102.5 49t-36.5 119z" />
<glyph unicode="&#xaa;" horiz-adv-x="634" d="M53 1018q0 111 64.5 158t171.5 47q23 0 44 -4.5t44 -14.5q0 88 -80 88q-76 0 -127 -43l-66 131q29 33 80.5 51.5t120.5 18.5q123 0 180.5 -63.5t57.5 -182.5v-405h-158v43q-16 -25 -53 -40.5t-78 -15.5q-80 0 -140.5 57.5t-60.5 174.5zM219 1020q0 -31 23.5 -49.5 t58.5 -18.5q53 0 76 23v100q-29 16 -66 17q-92 0 -92 -72z" />
<glyph unicode="&#xab;" horiz-adv-x="1257" d="M109 393zM109 608v172l432 224v-191l-254 -119l254 -116v-185zM738 608v172l432 224v-191l-254 -119l254 -116v-185z" />
<glyph unicode="&#xac;" d="M63 612v228h1037v-840h-228v612h-809z" />
<glyph unicode="&#xad;" horiz-adv-x="514" d="M45 662v260h424v-260h-424z" />
<glyph unicode="&#xaf;" horiz-adv-x="743" d="M82 1415v158h580v-158h-580z" />
<glyph unicode="&#xb0;" horiz-adv-x="856" d="M117 1178q0 63 24.5 120.5t66.5 100.5t98 67.5t122 24.5q63 0 119.5 -24.5t99.5 -67.5t67.5 -100.5t24.5 -120.5q0 -66 -24.5 -122.5t-67.5 -98.5t-99 -66.5t-120 -24.5q-66 0 -122 24.5t-98 66.5t-66.5 98.5t-24.5 122.5zM270 1176q0 -66 46 -112t112 -46t112 46t46 112 q0 68 -46 113.5t-112 45.5t-112 -47t-46 -112z" />
<glyph unicode="&#xb1;" d="M63 0zM63 105h1037v-228h-1037v228zM63 612v228h406v403h227v-403h404v-228h-404v-405h-227v405h-406z" />
<glyph unicode="&#xb2;" horiz-adv-x="665" d="M78 676zM78 1378q47 66 111.5 94.5t150.5 28.5q51 0 94 -13.5t76 -42t51.5 -73.5t18.5 -109q0 -55 -13.5 -95t-36 -69.5t-54.5 -53t-70 -44.5q-41 -23 -67 -40t-42 -35.5t-24.5 -39t-10.5 -47.5h318v-163h-500v86q0 84 15.5 142t40 98t56 65.5t66.5 44.5q43 23 72.5 39 t48 31.5t27 34t8.5 42.5q0 70 -80 70q-41 0 -74 -20.5t-72 -80.5z" />
<glyph unicode="&#xb3;" horiz-adv-x="649" d="M66 664zM66 815l141 98q18 -39 43.5 -61.5t60.5 -22.5q41 0 68 26.5t27 69.5q0 63 -28 85t-73 22h-72v166h72q29 0 47.5 18.5t18.5 59.5q0 63 -64 63q-49 0 -63 -55l-144 55q57 162 209 162q104 0 160.5 -53.5t56.5 -163.5q0 -51 -19.5 -90t-47.5 -62q53 -29 82.5 -76 t29.5 -118q0 -141 -66.5 -207t-195.5 -68q-86 0 -144.5 40t-98.5 112z" />
<glyph unicode="&#xb4;" horiz-adv-x="690" d="M82 1317l412 307l114 -174l-438 -268z" />
<glyph unicode="&#xb6;" horiz-adv-x="1562" d="M68 1016q0 104 31.5 189t90 143.5t140.5 90t184 31.5h907v-1832h-264v1572h-217v-1572h-264v921h-139q-104 0 -191.5 29.5t-149 88t-95 143.5t-33.5 196zM328 1006q0 -184 192 -185h156v389h-156q-193 0 -192 -204z" />
<glyph unicode="&#xb7;" horiz-adv-x="485" d="M102 555zM102 723q0 74 37 122t103 48q51 0 95 -48t44 -122q0 -35 -12.5 -65.5t-32 -53t-44.5 -36t-50 -13.5q-66 0 -103 49t-37 119z" />
<glyph unicode="&#xb8;" horiz-adv-x="448" d="M82 -197q0 59 38 99.5t103 40.5q53 0 98.5 -40t45.5 -100q0 -53 -14.5 -101t-45.5 -87t-77 -63.5t-109 -28.5v63q45 12 69.5 28.5t32.5 51.5h-4q-66 0 -101.5 39t-35.5 98z" />
<glyph unicode="&#xb9;" horiz-adv-x="380" d="M53 676zM53 1269v152q82 8 94 70h138v-815h-162v593h-70z" />
<glyph unicode="&#xba;" horiz-adv-x="686" d="M78 1120q0 70 18.5 129.5t53 104.5t82 70.5t106.5 25.5t108.5 -25.5t84 -70.5t53 -104.5t18.5 -129.5t-18.5 -130t-53 -105t-84 -72t-108.5 -27t-106.5 27t-82 72t-53 105.5t-18.5 129.5zM240 1120q0 -72 25.5 -117t72.5 -45q49 0 73.5 45.5t24.5 116.5q0 72 -24.5 116 t-73.5 44q-47 0 -72.5 -44t-25.5 -116z" />
<glyph unicode="&#xbb;" horiz-adv-x="1257" d="M109 393v189l251 118l-251 117v187l432 -218v-170zM109 393zM738 393v189l251 118l-251 117v187l432 -218v-170z" />
<glyph unicode="&#xbc;" horiz-adv-x="1642" d="M102 0zM103 0l1153 1470h217l-1157 -1470h-213zM213 1269v152q82 8 94 70h138v-815h-162v593h-70zM981 176v148l311 471h164v-455h86v-164h-86v-199h-164v199h-311zM1166 340h126v188z" />
<glyph unicode="&#xbd;" horiz-adv-x="1671" d="M102 0zM103 0l1153 1470h217l-1157 -1470h-213zM213 1269v152q82 8 94 70h138v-815h-162v593h-70zM1069 682q47 66 111.5 94.5t150.5 28.5q51 0 94 -13.5t76 -42t51.5 -73.5t18.5 -109q0 -55 -13.5 -95t-36 -69.5t-54.5 -53t-70 -44.5q-41 -23 -67 -40t-42 -35.5 t-24.5 -39t-10.5 -47.5h318v-163h-500v86q0 84 15.5 142t40 98t56 65.5t66.5 44.5q43 23 72.5 39t48 31.5t27 34t8.5 42.5q0 70 -80 70q-41 0 -74 -20.5t-72 -80.5z" />
<glyph unicode="&#xbe;" horiz-adv-x="1746" d="M102 0zM103 815l141 98q18 -39 43.5 -61.5t60.5 -22.5q41 0 68 26.5t27 69.5q0 63 -28 85t-73 22h-72v166h72q29 0 47.5 18.5t18.5 59.5q0 63 -64 63q-49 0 -63 -55l-144 55q57 162 209 162q104 0 160.5 -53.5t56.5 -163.5q0 -51 -19.5 -90t-47.5 -62q53 -29 82.5 -76 t29.5 -118q0 -141 -66.5 -207t-195.5 -68q-86 0 -144.5 40t-98.5 112zM207 0l1153 1470h217l-1157 -1470h-213zM1085 176v148l311 471h164v-455h86v-164h-86v-199h-164v199h-311zM1270 340h126v188z" />
<glyph unicode="&#xbf;" horiz-adv-x="962" d="M78 369q0 70 18.5 126t49 102t70.5 87t83 82q35 33 54.5 64.5t28.5 65.5t11 74t2 91h262v-43q0 -137 -42 -246.5t-128 -181.5q-41 -35 -67.5 -60.5t-42 -49t-20.5 -49t-5 -62.5q0 -119 125 -119q78 0 147.5 27.5t129.5 103.5l137 -219q-76 -100 -179.5 -141t-240.5 -41 q-180 0 -286.5 98t-106.5 291zM383 1303q0 70 39 118.5t102 48.5q31 0 57.5 -13t46 -35.5t32 -53.5t12.5 -65q0 -74 -44 -122t-104 -48q-63 0 -102 48t-39 122z" />
<glyph unicode="&#xc0;" horiz-adv-x="1228" d="M12 0l434 1470h336l435 -1470h-285l-78 274h-481l-76 -274h-285zM12 0zM248 1776l115 174l411 -307l-90 -135zM442 535h340l-172 595z" />
<glyph unicode="&#xc1;" horiz-adv-x="1228" d="M12 0l434 1470h336l435 -1470h-285l-78 274h-481l-76 -274h-285zM12 0zM442 535h340l-172 595zM453 1643l412 307l114 -174l-438 -268z" />
<glyph unicode="&#xc2;" horiz-adv-x="1228" d="M12 0l434 1470h336l435 -1470h-285l-78 274h-481l-76 -274h-285zM12 0zM291 1620l321 330l324 -330l-92 -100l-232 192l-229 -192zM442 535h340l-172 595z" />
<glyph unicode="&#xc3;" horiz-adv-x="1228" d="M12 0l434 1470h336l435 -1470h-285l-78 274h-481l-76 -274h-285zM12 0zM164 1717q16 51 44 94t63.5 73.5t75.5 48t79 17.5q70 0 120 -28.5t91 -63.5t77 -63.5t73 -28.5q25 0 46 15t40.5 41t37 58.5t33.5 69.5l119 -106q-18 -59 -49 -104.5t-70 -76t-81 -46t-83 -15.5 q-61 0 -108 28.5t-87 62.5t-76 62.5t-73 28.5q-47 0 -85 -52t-68 -122zM442 535h340l-172 595z" />
<glyph unicode="&#xc4;" horiz-adv-x="1228" d="M12 0l434 1470h336l435 -1470h-285l-78 274h-481l-76 -274h-285zM12 0zM277 1776q0 74 37 122t102 48q51 0 95 -48t44 -122q0 -35 -12 -65.5t-31.5 -53t-45 -36t-50.5 -13.5q-66 0 -102.5 49t-36.5 119zM442 535h340l-172 595zM674 1776q0 74 37 122t102 48 q51 0 95.5 -48t44.5 -122q0 -35 -12.5 -65.5t-32 -53t-45 -36t-50.5 -13.5q-66 0 -102.5 49t-36.5 119z" />
<glyph unicode="&#xc5;" horiz-adv-x="1228" d="M12 0l434 1470h336l435 -1470h-285l-78 274h-481l-76 -274h-285zM12 0zM391 1731q0 45 17.5 85t47 69.5t70.5 47t88 17.5q43 0 83 -17.5t70.5 -47t49 -69.5t18.5 -85q0 -47 -18.5 -87t-49 -70.5t-70.5 -48t-83 -17.5q-47 0 -88 17.5t-70.5 47t-47 70.5t-17.5 88zM442 535 h340l-172 595zM526 1731q0 -39 25.5 -64.5t62.5 -25.5q35 0 59.5 25.5t24.5 64.5q0 33 -24.5 58.5t-59.5 25.5q-37 0 -62.5 -25.5t-25.5 -58.5z" />
<glyph unicode="&#xc6;" horiz-adv-x="1724" d="M12 0l434 1470h1164v-260h-615l49 -325h359v-260h-320l54 -365h473v-260h-703l-41 274h-493l-76 -274h-285zM444 535h383l-100 675h-94z" />
<glyph unicode="&#xc7;" horiz-adv-x="1306" d="M102 0zM102 737q0 160 42 298.5t120 239.5t188.5 158.5t249.5 57.5q342 0 510 -291l-237 -147q-59 80 -125 114.5t-148 34.5q-154 0 -239.5 -124t-85.5 -341q0 -102 24.5 -187t69.5 -147.5t105.5 -97.5t134.5 -35q70 0 143.5 39t124.5 94l219 -149q-184 -274 -496 -274 q-133 0 -242.5 57t-189.5 158.5t-124 239.5t-44 302zM545 -197q0 59 38 99.5t103 40.5q53 0 98.5 -40t45.5 -100q0 -53 -14.5 -101t-45.5 -87t-77 -63.5t-109 -28.5v63q45 12 69.5 28.5t32.5 51.5h-4q-66 0 -101.5 39t-35.5 98z" />
<glyph unicode="&#xc8;" horiz-adv-x="1048" d="M123 0v1470h811v-260h-547v-325h340v-260h-340v-365h547v-260h-811zM123 0zM178 1776l115 174l411 -307l-90 -135z" />
<glyph unicode="&#xc9;" horiz-adv-x="1048" d="M123 0v1470h811v-260h-547v-325h340v-260h-340v-365h547v-260h-811zM123 0zM383 1643l412 307l114 -174l-438 -268z" />
<glyph unicode="&#xca;" horiz-adv-x="1048" d="M123 0v1470h811v-260h-547v-325h340v-260h-340v-365h547v-260h-811zM123 0zM221 1620l321 330l324 -330l-92 -100l-232 192l-229 -192z" />
<glyph unicode="&#xcb;" horiz-adv-x="1048" d="M123 0v1470h811v-260h-547v-325h340v-260h-340v-365h547v-260h-811zM123 0zM207 1776q0 74 37 122t102 48q51 0 95 -48t44 -122q0 -35 -12 -65.5t-31.5 -53t-45 -36t-50.5 -13.5q-66 0 -102.5 49t-36.5 119zM604 1776q0 74 37 122t102 48q51 0 95.5 -48t44.5 -122 q0 -35 -12.5 -65.5t-32 -53t-45 -36t-50.5 -13.5q-66 0 -102.5 49t-36.5 119z" />
<glyph unicode="&#xcc;" horiz-adv-x="526" d="M-100 1776l115 174l411 -307l-90 -135zM0 0zM131 0v1470h264v-1470h-264z" />
<glyph unicode="&#xcd;" horiz-adv-x="526" d="M102 0zM102 1643l412 307l114 -174l-438 -268zM131 0v1470h264v-1470h-264z" />
<glyph unicode="&#xce;" horiz-adv-x="526" d="M-57 1620l321 330l324 -330l-92 -100l-232 192l-229 -192zM0 0zM131 0v1470h264v-1470h-264z" />
<glyph unicode="&#xcf;" horiz-adv-x="526" d="M-72 1776q0 74 37 122t102 48q51 0 95 -48t44 -122q0 -35 -12 -65.5t-31.5 -53t-45 -36t-50.5 -13.5q-66 0 -102.5 49t-36.5 119zM0 0zM131 0v1470h264v-1470h-264zM325 1776q0 74 37 122t102 48q51 0 95.5 -48t44.5 -122q0 -35 -12.5 -65.5t-32 -53t-45 -36t-50.5 -13.5 q-66 0 -102.5 49t-36.5 119z" />
<glyph unicode="&#xd0;" horiz-adv-x="1335" d="M37 625v260h96v585h426q150 0 277 -55t218 -152.5t142 -231.5t51 -290q0 -174 -53 -311t-146.5 -232.5t-222.5 -146.5t-280 -51h-412v625h-96zM397 264h115q109 0 196 36t147 99.5t93 150.5t33 189q0 104 -33 191.5t-93 149t-147 96t-196 34.5h-115v-325h265v-260h-265 v-361z" />
<glyph unicode="&#xd1;" horiz-adv-x="1284" d="M123 0v1470h303l473 -927v927h262v-1470h-282l-494 971v-971h-262zM123 0zM193 1717q16 51 44 94t63.5 73.5t75.5 48t79 17.5q70 0 120 -28.5t91 -63.5t77 -63.5t73 -28.5q25 0 46 15t40.5 41t37 58.5t33.5 69.5l119 -106q-18 -59 -49 -104.5t-70 -76t-81 -46t-83 -15.5 q-61 0 -108 28.5t-87 62.5t-76 62.5t-73 28.5q-47 0 -85 -52t-68 -122z" />
<glyph unicode="&#xd2;" horiz-adv-x="1396" d="M102 0zM102 737q0 174 45.5 314.5t125 237.5t188 149.5t237.5 52.5t239 -52.5t189.5 -149.5t123.5 -237.5t44 -314.5q0 -176 -43 -316t-120.5 -238.5t-185 -150.5t-234.5 -52q-129 0 -241 51t-193.5 148t-128 238.5t-46.5 319.5zM332 1776l115 174l411 -307l-90 -135z M362 737q0 -123 27 -216t72 -154.5t106.5 -92t130.5 -30.5q72 0 133.5 30.5t106.5 92t70.5 154.5t25.5 216q0 248 -87 371t-249 123q-147 0 -241.5 -123t-94.5 -371z" />
<glyph unicode="&#xd3;" horiz-adv-x="1396" d="M102 0zM102 737q0 174 45.5 314.5t125 237.5t188 149.5t237.5 52.5t239 -52.5t189.5 -149.5t123.5 -237.5t44 -314.5q0 -176 -43 -316t-120.5 -238.5t-185 -150.5t-234.5 -52q-129 0 -241 51t-193.5 148t-128 238.5t-46.5 319.5zM362 737q0 -123 27 -216t72 -154.5 t106.5 -92t130.5 -30.5q72 0 133.5 30.5t106.5 92t70.5 154.5t25.5 216q0 248 -87 371t-249 123q-147 0 -241.5 -123t-94.5 -371zM537 1643l412 307l114 -174l-438 -268z" />
<glyph unicode="&#xd4;" horiz-adv-x="1396" d="M102 0zM102 737q0 174 45.5 314.5t125 237.5t188 149.5t237.5 52.5t239 -52.5t189.5 -149.5t123.5 -237.5t44 -314.5q0 -176 -43 -316t-120.5 -238.5t-185 -150.5t-234.5 -52q-129 0 -241 51t-193.5 148t-128 238.5t-46.5 319.5zM362 737q0 -123 27 -216t72 -154.5 t106.5 -92t130.5 -30.5q72 0 133.5 30.5t106.5 92t70.5 154.5t25.5 216q0 248 -87 371t-249 123q-147 0 -241.5 -123t-94.5 -371zM375 1620l321 330l324 -330l-92 -100l-232 192l-229 -192z" />
<glyph unicode="&#xd5;" horiz-adv-x="1396" d="M102 0zM102 737q0 174 45.5 314.5t125 237.5t188 149.5t237.5 52.5t239 -52.5t189.5 -149.5t123.5 -237.5t44 -314.5q0 -176 -43 -316t-120.5 -238.5t-185 -150.5t-234.5 -52q-129 0 -241 51t-193.5 148t-128 238.5t-46.5 319.5zM248 1717q16 51 44 94t63.5 73.5t75.5 48 t79 17.5q70 0 120 -28.5t91 -63.5t77 -63.5t73 -28.5q25 0 46 15t40.5 41t37 58.5t33.5 69.5l119 -106q-18 -59 -49 -104.5t-70 -76t-81 -46t-83 -15.5q-61 0 -108 28.5t-87 62.5t-76 62.5t-73 28.5q-47 0 -85 -52t-68 -122zM362 737q0 -123 27 -216t72 -154.5t106.5 -92 t130.5 -30.5q72 0 133.5 30.5t106.5 92t70.5 154.5t25.5 216q0 248 -87 371t-249 123q-147 0 -241.5 -123t-94.5 -371z" />
<glyph unicode="&#xd6;" horiz-adv-x="1396" d="M102 0zM102 737q0 174 45.5 314.5t125 237.5t188 149.5t237.5 52.5t239 -52.5t189.5 -149.5t123.5 -237.5t44 -314.5q0 -176 -43 -316t-120.5 -238.5t-185 -150.5t-234.5 -52q-129 0 -241 51t-193.5 148t-128 238.5t-46.5 319.5zM361 1776q0 74 37 122t102 48 q51 0 95 -48t44 -122q0 -35 -12 -65.5t-31.5 -53t-45 -36t-50.5 -13.5q-66 0 -102.5 49t-36.5 119zM362 737q0 -123 27 -216t72 -154.5t106.5 -92t130.5 -30.5q72 0 133.5 30.5t106.5 92t70.5 154.5t25.5 216q0 248 -87 371t-249 123q-147 0 -241.5 -123t-94.5 -371z M758 1776q0 74 37 122t102 48q51 0 95.5 -48t44.5 -122q0 -35 -12.5 -65.5t-32 -53t-45 -36t-50.5 -13.5q-66 0 -102.5 49t-36.5 119z" />
<glyph unicode="&#xd7;" horiz-adv-x="1193" d="M150 438l286 287l-286 287l161 159l287 -286l285 286l159 -161l-284 -285l284 -285l-159 -161l-285 286l-287 -286z" />
<glyph unicode="&#xd8;" horiz-adv-x="1394" d="M102 737q0 174 45.5 314.5t125 237.5t188 149.5t237.5 52.5q127 0 240 -53l70 135h235l-135 -262q88 -98 137 -242.5t49 -331.5q0 -176 -43 -316t-120.5 -238.5t-185 -150.5t-234.5 -52q-141 0 -258 57l-72 -139h-229l137 268q-88 98 -137.5 241.5t-49.5 329.5zM362 737 q0 -98 15.5 -174t44.5 -135l399 780q-62 23 -123 23q-147 0 -241.5 -123t-94.5 -371zM573 270q53 -27 125 -26q72 0 133.5 30.5t106.5 92t70.5 154.5t25.5 216q0 201 -57 318z" />
<glyph unicode="&#xd9;" horiz-adv-x="1249" d="M115 0zM115 526v944h262v-935q0 -162 65.5 -228.5t190.5 -66.5q117 0 177 66.5t60 228.5v935h265v-935q0 -127 -33 -230.5t-97.5 -175.5t-157.5 -110.5t-214 -38.5q-123 0 -220.5 38.5t-163 109.5t-100 172t-34.5 226zM258 1776l115 174l411 -307l-90 -135z" />
<glyph unicode="&#xda;" horiz-adv-x="1249" d="M115 0zM115 526v944h262v-935q0 -162 65.5 -228.5t190.5 -66.5q117 0 177 66.5t60 228.5v935h265v-935q0 -127 -33 -230.5t-97.5 -175.5t-157.5 -110.5t-214 -38.5q-123 0 -220.5 38.5t-163 109.5t-100 172t-34.5 226zM463 1643l412 307l114 -174l-438 -268z" />
<glyph unicode="&#xdb;" horiz-adv-x="1249" d="M115 0zM115 526v944h262v-935q0 -162 65.5 -228.5t190.5 -66.5q117 0 177 66.5t60 228.5v935h265v-935q0 -127 -33 -230.5t-97.5 -175.5t-157.5 -110.5t-214 -38.5q-123 0 -220.5 38.5t-163 109.5t-100 172t-34.5 226zM301 1620l321 330l324 -330l-92 -100l-232 192 l-229 -192z" />
<glyph unicode="&#xdc;" horiz-adv-x="1249" d="M115 0zM115 526v944h262v-935q0 -162 65.5 -228.5t190.5 -66.5q117 0 177 66.5t60 228.5v935h265v-935q0 -127 -33 -230.5t-97.5 -175.5t-157.5 -110.5t-214 -38.5q-123 0 -220.5 38.5t-163 109.5t-100 172t-34.5 226zM287 1776q0 74 37 122t102 48q51 0 95 -48t44 -122 q0 -35 -12 -65.5t-31.5 -53t-45 -36t-50.5 -13.5q-66 0 -102.5 49t-36.5 119zM684 1776q0 74 37 122t102 48q51 0 95.5 -48t44.5 -122q0 -35 -12.5 -65.5t-32 -53t-45 -36t-50.5 -13.5q-66 0 -102.5 49t-36.5 119z" />
<glyph unicode="&#xdd;" horiz-adv-x="1171" d="M8 0zM8 1470h297l283 -614l282 614h293l-432 -907v-563h-289v559zM424 1643l412 307l114 -174l-438 -268z" />
<glyph unicode="&#xde;" horiz-adv-x="1097" d="M123 0v1470h264v-225h131q260 0 399.5 -116.5t139.5 -352.5q0 -121 -39 -215t-111.5 -160.5t-174 -101.5t-224.5 -35h-121v-264h-264zM387 526h145q61 0 108.5 11.5t78.5 39t47 74.5t16 121q0 61 -22.5 102t-59 66t-86 35t-100.5 10h-127v-459z" />
<glyph unicode="&#xdf;" horiz-adv-x="1187" d="M119 0v1063q0 233 110.5 354t321.5 121q217 0 329.5 -110.5t112.5 -321.5q0 -94 -42 -166t-95 -106q45 -16 88 -45t76 -73t53.5 -105.5t20.5 -143.5q0 -98 -21.5 -186t-72 -155t-131.5 -106.5t-197 -39.5q-86 0 -156 25.5t-100 53.5l125 226q18 -16 53 -30.5t68 -14.5 q86 0 127.5 64.5t41.5 168.5t-69.5 155.5t-200.5 51.5h-35v229q111 0 158 51.5t47 133.5q0 92 -48 137t-126 45q-176 0 -176 -193v-1083h-262z" />
<glyph unicode="&#xe0;" horiz-adv-x="1042" d="M61 0zM61 397q0 201 113 301.5t297 100.5q49 0 99.5 -9.5t91.5 -37.5q-14 82 -55.5 115.5t-119.5 33.5q-63 0 -108 -21.5t-88 -58.5l-119 203q59 66 145 103.5t187 37.5q94 0 172 -30.5t132 -87t84 -137.5t30 -179v-731h-263v63q-35 -35 -95 -59t-132 -24 q-78 0 -144.5 29.5t-117.5 83.5t-80 131t-29 173zM156 1450l115 174l411 -307l-90 -135zM324 403q0 -68 50 -107.5t120 -39.5q102 0 163 74v162q-16 29 -55 48t-86 19q-193 0 -192 -156z" />
<glyph unicode="&#xe1;" horiz-adv-x="1042" d="M61 0zM61 397q0 201 113 301.5t297 100.5q49 0 99.5 -9.5t91.5 -37.5q-14 82 -55.5 115.5t-119.5 33.5q-63 0 -108 -21.5t-88 -58.5l-119 203q59 66 145 103.5t187 37.5q94 0 172 -30.5t132 -87t84 -137.5t30 -179v-731h-263v63q-35 -35 -95 -59t-132 -24 q-78 0 -144.5 29.5t-117.5 83.5t-80 131t-29 173zM324 403q0 -68 50 -107.5t120 -39.5q102 0 163 74v162q-16 29 -55 48t-86 19q-193 0 -192 -156zM361 1317l412 307l114 -174l-438 -268z" />
<glyph unicode="&#xe2;" horiz-adv-x="1042" d="M61 0zM61 397q0 201 113 301.5t297 100.5q49 0 99.5 -9.5t91.5 -37.5q-14 82 -55.5 115.5t-119.5 33.5q-63 0 -108 -21.5t-88 -58.5l-119 203q59 66 145 103.5t187 37.5q94 0 172 -30.5t132 -87t84 -137.5t30 -179v-731h-263v63q-35 -35 -95 -59t-132 -24 q-78 0 -144.5 29.5t-117.5 83.5t-80 131t-29 173zM199 1294l321 330l324 -330l-92 -100l-232 192l-229 -192zM324 403q0 -68 50 -107.5t120 -39.5q102 0 163 74v162q-16 29 -55 48t-86 19q-193 0 -192 -156z" />
<glyph unicode="&#xe3;" horiz-adv-x="1042" d="M61 0zM61 397q0 201 113 301.5t297 100.5q49 0 99.5 -9.5t91.5 -37.5q-14 82 -55.5 115.5t-119.5 33.5q-63 0 -108 -21.5t-88 -58.5l-119 203q59 66 145 103.5t187 37.5q94 0 172 -30.5t132 -87t84 -137.5t30 -179v-731h-263v63q-35 -35 -95 -59t-132 -24 q-78 0 -144.5 29.5t-117.5 83.5t-80 131t-29 173zM74 1391q16 51 44 94t63.5 73.5t75.5 48t79 17.5q70 0 120 -28.5t91 -63.5t77 -63.5t73 -28.5q25 0 46 15t40.5 41t37 58.5t33.5 69.5l119 -106q-18 -59 -49 -104.5t-70 -76t-81 -46t-83 -15.5q-61 0 -108 28.5t-87 62.5 t-76 62.5t-73 28.5q-47 0 -85 -52t-68 -122zM324 403q0 -68 50 -107.5t120 -39.5q102 0 163 74v162q-16 29 -55 48t-86 19q-193 0 -192 -156z" />
<glyph unicode="&#xe4;" horiz-adv-x="1042" d="M61 0zM61 397q0 201 113 301.5t297 100.5q49 0 99.5 -9.5t91.5 -37.5q-14 82 -55.5 115.5t-119.5 33.5q-63 0 -108 -21.5t-88 -58.5l-119 203q59 66 145 103.5t187 37.5q94 0 172 -30.5t132 -87t84 -137.5t30 -179v-731h-263v63q-35 -35 -95 -59t-132 -24 q-78 0 -144.5 29.5t-117.5 83.5t-80 131t-29 173zM182 1450q0 74 37 122t102 48q51 0 95 -48t44 -122q0 -35 -12 -65.5t-31.5 -53t-45 -36t-50.5 -13.5q-66 0 -102.5 49t-36.5 119zM324 403q0 -68 50 -107.5t120 -39.5q102 0 163 74v162q-16 29 -55 48t-86 19 q-193 0 -192 -156zM579 1450q0 74 37 122t102 48q51 0 95.5 -48t44.5 -122q0 -35 -12.5 -65.5t-32 -53t-45 -36t-50.5 -13.5q-66 0 -102.5 49t-36.5 119z" />
<glyph unicode="&#xe5;" horiz-adv-x="1042" d="M61 0zM61 397q0 201 113 301.5t297 100.5q49 0 99.5 -9.5t91.5 -37.5q-14 82 -55.5 115.5t-119.5 33.5q-63 0 -108 -21.5t-88 -58.5l-119 203q59 66 145 103.5t187 37.5q94 0 172 -30.5t132 -87t84 -137.5t30 -179v-731h-263v63q-35 -35 -95 -59t-132 -24 q-78 0 -144.5 29.5t-117.5 83.5t-80 131t-29 173zM299 1405q0 45 17.5 85t47 69.5t70.5 47t88 17.5q43 0 83 -17.5t70.5 -47t49 -69.5t18.5 -85q0 -47 -18.5 -87t-49 -70.5t-70.5 -48t-83 -17.5q-47 0 -88 17.5t-70.5 47t-47 70.5t-17.5 88zM324 403q0 -68 50 -107.5 t120 -39.5q102 0 163 74v162q-16 29 -55 48t-86 19q-193 0 -192 -156zM434 1405q0 -39 25.5 -64.5t62.5 -25.5q35 0 59.5 25.5t24.5 64.5q0 33 -24.5 58.5t-59.5 25.5q-37 0 -62.5 -25.5t-25.5 -58.5z" />
<glyph unicode="&#xe6;" horiz-adv-x="1658" d="M61 397q0 201 113 301.5t297 100.5q49 0 99.5 -9.5t91.5 -37.5q-14 82 -55.5 115.5t-119.5 33.5q-63 0 -108 -21.5t-88 -58.5l-119 203q59 66 145 103.5t187 37.5q197 0 309 -123q123 123 309 123q100 0 184.5 -35.5t143.5 -108.5t92 -182.5t33 -256.5q0 -70 -2 -106 t-6 -52h-658q6 -43 27.5 -76t51.5 -56.5t66 -34.5t72 -11q51 0 92.5 17.5t75.5 64.5l179 -168q-76 -98 -160 -139t-195 -41q-129 0 -222 46t-153 132q-20 -31 -47.5 -61.5t-65.5 -57.5t-87 -43t-111 -16q-78 0 -144.5 29.5t-117.5 83.5t-80 131t-29 173zM324 403 q0 -68 50 -107.5t120 -39.5q102 0 163 74l11 12q-10 39 -15.5 80t-7.5 84q-20 23 -54 38t-75 15q-193 0 -192 -156zM909 680h402q-12 100 -62.5 164.5t-128.5 64.5q-86 0 -143 -64.5t-68 -164.5z" />
<glyph unicode="&#xe7;" horiz-adv-x="1019" d="M102 0zM102 582q0 125 35 232.5t98.5 185t151.5 121.5t195 44q123 0 201.5 -45t131.5 -121l-200 -172q-23 37 -53.5 54.5t-79.5 17.5q-98 0 -154.5 -86t-56.5 -233q0 -162 50 -247t161 -85q84 0 151 76l213 -152q-80 -104 -165.5 -148t-198.5 -44t-202 43t-150.5 121.5 t-94.5 189t-33 248.5zM416 -197q0 59 38 99.5t103 40.5q53 0 98.5 -40t45.5 -100q0 -53 -14.5 -101t-45.5 -87t-77 -63.5t-109 -28.5v63q45 12 69.5 28.5t32.5 51.5h-4q-66 0 -101.5 39t-35.5 98z" />
<glyph unicode="&#xe8;" horiz-adv-x="1116" d="M102 0zM102 555q0 143 35 257t97.5 192.5t150.5 119.5t195 41q100 0 184 -35.5t143.5 -108.5t92 -182.5t32.5 -256.5q0 -70 -2 -106t-6 -52h-657q6 -43 27.5 -76t51 -56.5t65.5 -34.5t73 -11q51 0 92 17.5t76 64.5l178 -168q-76 -98 -160 -139t-195 -41q-229 0 -351 147 t-122 428zM213 1450l115 174l411 -307l-90 -135zM367 680h401q-12 100 -62 164.5t-128 64.5q-86 0 -143.5 -64.5t-67.5 -164.5z" />
<glyph unicode="&#xe9;" horiz-adv-x="1116" d="M102 0zM102 555q0 143 35 257t97.5 192.5t150.5 119.5t195 41q100 0 184 -35.5t143.5 -108.5t92 -182.5t32.5 -256.5q0 -70 -2 -106t-6 -52h-657q6 -43 27.5 -76t51 -56.5t65.5 -34.5t73 -11q51 0 92 17.5t76 64.5l178 -168q-76 -98 -160 -139t-195 -41q-229 0 -351 147 t-122 428zM367 680h401q-12 100 -62 164.5t-128 64.5q-86 0 -143.5 -64.5t-67.5 -164.5zM418 1317l412 307l114 -174l-438 -268z" />
<glyph unicode="&#xea;" horiz-adv-x="1116" d="M102 0zM102 555q0 143 35 257t97.5 192.5t150.5 119.5t195 41q100 0 184 -35.5t143.5 -108.5t92 -182.5t32.5 -256.5q0 -70 -2 -106t-6 -52h-657q6 -43 27.5 -76t51 -56.5t65.5 -34.5t73 -11q51 0 92 17.5t76 64.5l178 -168q-76 -98 -160 -139t-195 -41q-229 0 -351 147 t-122 428zM256 1294l321 330l324 -330l-92 -100l-232 192l-229 -192zM367 680h401q-12 100 -62 164.5t-128 64.5q-86 0 -143.5 -64.5t-67.5 -164.5z" />
<glyph unicode="&#xeb;" horiz-adv-x="1116" d="M102 0zM102 555q0 143 35 257t97.5 192.5t150.5 119.5t195 41q100 0 184 -35.5t143.5 -108.5t92 -182.5t32.5 -256.5q0 -70 -2 -106t-6 -52h-657q6 -43 27.5 -76t51 -56.5t65.5 -34.5t73 -11q51 0 92 17.5t76 64.5l178 -168q-76 -98 -160 -139t-195 -41q-229 0 -351 147 t-122 428zM240 1450q0 74 37 122t102 48q51 0 95 -48t44 -122q0 -35 -12 -65.5t-31.5 -53t-45 -36t-50.5 -13.5q-66 0 -102.5 49t-36.5 119zM367 680h401q-12 100 -62 164.5t-128 64.5q-86 0 -143.5 -64.5t-67.5 -164.5zM637 1450q0 74 37 122t102 48q51 0 95.5 -48 t44.5 -122q0 -35 -12.5 -65.5t-32 -53t-45 -36t-50.5 -13.5q-66 0 -102.5 49t-36.5 119z" />
<glyph unicode="&#xec;" horiz-adv-x="503" d="M-111 1450l115 174l411 -307l-90 -135zM0 0zM121 0v1145h264v-1145h-264z" />
<glyph unicode="&#xed;" horiz-adv-x="503" d="M90 0zM90 1317l412 307l114 -174l-438 -268zM121 0v1145h264v-1145h-264z" />
<glyph unicode="&#xee;" horiz-adv-x="557" d="M-41 1294l321 330l324 -330l-92 -100l-232 192l-229 -192zM0 0zM148 0v1145h264v-1145h-264z" />
<glyph unicode="&#xef;" horiz-adv-x="563" d="M-53 1450q0 74 37 122t102 48q51 0 95 -48t44 -122q0 -35 -12 -65.5t-31.5 -53t-45 -36t-50.5 -13.5q-66 0 -102.5 49t-36.5 119zM0 0zM152 0v1145h264v-1145h-264zM344 1450q0 74 37 122t102 48q51 0 95.5 -48t44.5 -122q0 -35 -12.5 -65.5t-32 -53t-45 -36t-50.5 -13.5 q-66 0 -102.5 49t-36.5 119z" />
<glyph unicode="&#xf0;" horiz-adv-x="1097" d="M102 489q0 211 98.5 333t272.5 122q86 0 149.5 -23.5t108.5 -62.5q-23 92 -72 160.5t-122 118.5l-177 -166l-86 94l142 135q-33 10 -63.5 19.5t-63.5 15.5l41 252q164 -23 286 -98l142 133l86 -95l-125 -118q70 -68 121 -153t86 -182t52 -201.5t17 -209.5 q0 -135 -30.5 -243.5t-88 -183.5t-141.5 -115.5t-190 -40.5q-205 0 -324 125.5t-119 383.5zM344 473q0 -117 57.5 -175t149.5 -58q186 0 186 237q0 117 -52 178.5t-144 61.5q-88 0 -142.5 -63.5t-54.5 -180.5z" />
<glyph unicode="&#xf1;" horiz-adv-x="1085" d="M92 0zM92 1391q16 51 44 94t63.5 73.5t75.5 48t79 17.5q70 0 120 -28.5t91 -63.5t77 -63.5t73 -28.5q25 0 46 15t40.5 41t37 58.5t33.5 69.5l119 -106q-18 -59 -49 -104.5t-70 -76t-81 -46t-83 -15.5q-61 0 -108 28.5t-87 62.5t-76 62.5t-73 28.5q-47 0 -85 -52t-68 -122 zM123 0v1145h264v-84q86 104 236 104q94 0 162.5 -30.5t112.5 -87t64.5 -135t20.5 -175.5v-737h-262v717q0 76 -40 130t-130 54q-59 0 -103.5 -33.5t-60.5 -89.5v-778h-264z" />
<glyph unicode="&#xf2;" horiz-adv-x="1134" d="M102 0zM102 573q0 125 34 232.5t94.5 187.5t146.5 126t190 46t190.5 -46t147 -126t94 -187.5t33.5 -232.5t-33.5 -233.5t-94 -188t-147 -125.5t-190.5 -46t-190 46t-146.5 125.5t-94.5 188.5t-34 233zM201 1450l115 174l411 -307l-90 -135zM362 573q0 -143 53.5 -232 t151.5 -89t151.5 89t53.5 232t-53 231.5t-152 88.5q-98 0 -151.5 -88t-53.5 -232z" />
<glyph unicode="&#xf3;" horiz-adv-x="1134" d="M102 0zM102 573q0 125 34 232.5t94.5 187.5t146.5 126t190 46t190.5 -46t147 -126t94 -187.5t33.5 -232.5t-33.5 -233.5t-94 -188t-147 -125.5t-190.5 -46t-190 46t-146.5 125.5t-94.5 188.5t-34 233zM362 573q0 -143 53.5 -232t151.5 -89t151.5 89t53.5 232t-53 231.5 t-152 88.5q-98 0 -151.5 -88t-53.5 -232zM406 1317l412 307l114 -174l-438 -268z" />
<glyph unicode="&#xf4;" horiz-adv-x="1134" d="M102 0zM102 573q0 125 34 232.5t94.5 187.5t146.5 126t190 46t190.5 -46t147 -126t94 -187.5t33.5 -232.5t-33.5 -233.5t-94 -188t-147 -125.5t-190.5 -46t-190 46t-146.5 125.5t-94.5 188.5t-34 233zM244 1294l321 330l324 -330l-92 -100l-232 192l-229 -192zM362 573 q0 -143 53.5 -232t151.5 -89t151.5 89t53.5 232t-53 231.5t-152 88.5q-98 0 -151.5 -88t-53.5 -232z" />
<glyph unicode="&#xf5;" horiz-adv-x="1134" d="M102 0zM102 573q0 125 34 232.5t94.5 187.5t146.5 126t190 46t190.5 -46t147 -126t94 -187.5t33.5 -232.5t-33.5 -233.5t-94 -188t-147 -125.5t-190.5 -46t-190 46t-146.5 125.5t-94.5 188.5t-34 233zM117 1391q16 51 44 94t63.5 73.5t75.5 48t79 17.5q70 0 120 -28.5 t91 -63.5t77 -63.5t73 -28.5q25 0 46 15t40.5 41t37 58.5t33.5 69.5l119 -106q-18 -59 -49 -104.5t-70 -76t-81 -46t-83 -15.5q-61 0 -108 28.5t-87 62.5t-76 62.5t-73 28.5q-47 0 -85 -52t-68 -122zM362 573q0 -143 53.5 -232t151.5 -89t151.5 89t53.5 232t-53 231.5 t-152 88.5q-98 0 -151.5 -88t-53.5 -232z" />
<glyph unicode="&#xf6;" horiz-adv-x="1134" d="M102 0zM102 573q0 125 34 232.5t94.5 187.5t146.5 126t190 46t190.5 -46t147 -126t94 -187.5t33.5 -232.5t-33.5 -233.5t-94 -188t-147 -125.5t-190.5 -46t-190 46t-146.5 125.5t-94.5 188.5t-34 233zM229 1450q0 74 37 122t102 48q51 0 95 -48t44 -122q0 -35 -12 -65.5 t-31.5 -53t-45 -36t-50.5 -13.5q-66 0 -102.5 49t-36.5 119zM362 573q0 -143 53.5 -232t151.5 -89t151.5 89t53.5 232t-53 231.5t-152 88.5q-98 0 -151.5 -88t-53.5 -232zM626 1450q0 74 37 122t102 48q51 0 95.5 -48t44.5 -122q0 -35 -12.5 -65.5t-32 -53t-45 -36 t-50.5 -13.5q-66 0 -102.5 49t-36.5 119z" />
<glyph unicode="&#xf7;" d="M63 29zM63 612v228h1037v-228h-1037zM442 197q0 74 37 122t103 48q51 0 95 -48t44 -122q0 -35 -12.5 -65.5t-32 -53t-44.5 -36t-50 -13.5q-66 0 -103 49t-37 119zM442 1255q0 74 37 122t103 48q51 0 95 -48t44 -122q0 -35 -12.5 -65.5t-32 -53t-44.5 -36t-50 -13.5 q-66 0 -103 49t-37 119z" />
<glyph unicode="&#xf8;" horiz-adv-x="1134" d="M102 573q0 125 34 232.5t94.5 187.5t146.5 126t190 46q94 0 181 -41l63 123h209l-125 -241q66 -82 101.5 -193t35.5 -240q0 -125 -33.5 -233.5t-94 -188t-146.5 -125.5t-191 -46q-94 0 -180 40l-63 -122h-207l123 239q-66 82 -102 193.5t-36 242.5zM336 573q0 -55 6 -104 t23 -90l278 541q-37 14 -76 14q-111 0 -171 -99.5t-60 -261.5zM492 225q28 -14 75 -14q111 0 171.5 100.5t60.5 261.5q0 104 -29 191z" />
<glyph unicode="&#xf9;" horiz-adv-x="1093" d="M111 0zM111 408v737h262v-717q0 -76 40 -130t130 -54q59 0 103 33.5t61 89.5v778h264v-1145h-264v84q-86 -104 -236 -104q-96 0 -163.5 30.5t-111.5 87t-64.5 135t-20.5 175.5zM180 1450l115 174l411 -307l-90 -135z" />
<glyph unicode="&#xfa;" horiz-adv-x="1093" d="M111 0zM111 408v737h262v-717q0 -76 40 -130t130 -54q59 0 103 33.5t61 89.5v778h264v-1145h-264v84q-86 -104 -236 -104q-96 0 -163.5 30.5t-111.5 87t-64.5 135t-20.5 175.5zM385 1317l412 307l114 -174l-438 -268z" />
<glyph unicode="&#xfb;" horiz-adv-x="1093" d="M111 0zM111 408v737h262v-717q0 -76 40 -130t130 -54q59 0 103 33.5t61 89.5v778h264v-1145h-264v84q-86 -104 -236 -104q-96 0 -163.5 30.5t-111.5 87t-64.5 135t-20.5 175.5zM223 1294l321 330l324 -330l-92 -100l-232 192l-229 -192z" />
<glyph unicode="&#xfc;" horiz-adv-x="1093" d="M111 0zM111 408v737h262v-717q0 -76 40 -130t130 -54q59 0 103 33.5t61 89.5v778h264v-1145h-264v84q-86 -104 -236 -104q-96 0 -163.5 30.5t-111.5 87t-64.5 135t-20.5 175.5zM209 1450q0 74 37 122t102 48q51 0 95 -48t44 -122q0 -35 -12 -65.5t-31.5 -53t-45 -36 t-50.5 -13.5q-66 0 -102.5 49t-36.5 119zM606 1450q0 74 37 122t102 48q51 0 95.5 -48t44.5 -122q0 -35 -12.5 -65.5t-32 -53t-45 -36t-50.5 -13.5q-66 0 -102.5 49t-36.5 119z" />
<glyph unicode="&#xfd;" horiz-adv-x="972" d="M20 0zM20 1145h281l191 -744l182 744h278l-463 -1622h-276l141 497zM326 1317l412 307l114 -174l-438 -268z" />
<glyph unicode="&#xfe;" horiz-adv-x="1142" d="M123 -477v1884l264 115v-432q39 35 99.5 55t123.5 20q94 0 173 -40t136.5 -114.5t89 -181t31.5 -239.5q0 -129 -29.5 -240.5t-84 -193.5t-131 -129t-170.5 -47q-92 0 -145.5 16t-94.5 47v-405zM385 395q23 -61 72 -101t108 -40q117 0 165 91t48 245q0 143 -55 223 t-166 80q-61 0 -108.5 -37t-63.5 -92v-369z" />
<glyph unicode="&#xff;" horiz-adv-x="972" d="M20 0zM20 1145h281l191 -744l182 744h278l-463 -1622h-276l141 497zM148 1450q0 74 37 122t102 48q51 0 95 -48t44 -122q0 -35 -12 -65.5t-31.5 -53t-45 -36t-50.5 -13.5q-66 0 -102.5 49t-36.5 119zM545 1450q0 74 37 122t102 48q51 0 95.5 -48t44.5 -122 q0 -35 -12.5 -65.5t-32 -53t-45 -36t-50.5 -13.5q-66 0 -102.5 49t-36.5 119z" />
<glyph unicode="&#x152;" horiz-adv-x="1935" d="M102 737q0 174 45.5 314.5t125 237.5t188 149.5t237.5 52.5q92 0 169 -26.5t143 -75.5v81h811v-260h-547v-325h340v-260h-340v-365h547v-260h-811v78q-127 -98 -299 -98q-129 0 -241 51t-193.5 148t-128 238.5t-46.5 319.5zM362 737q0 -123 27 -216t72 -154.5t106.5 -92 t130.5 -30.5q111 0 193 69.5t119 210.5v439q-70 268 -312 268q-147 0 -241.5 -123t-94.5 -371z" />
<glyph unicode="&#x153;" horiz-adv-x="1775" d="M102 573q0 125 34 232.5t94.5 187.5t146.5 126t190 46t187.5 -46t140.5 -128q121 174 344 174q100 0 184 -35.5t143.5 -108.5t92.5 -182.5t33 -256.5q0 -70 -2 -106t-7 -52h-657q6 -43 27.5 -76t51.5 -56.5t65.5 -34.5t72.5 -11q51 0 92 17.5t76 64.5l178 -168 q-76 -98 -159.5 -139t-194.5 -41q-238 0 -350 159q-57 -76 -137 -117.5t-181 -41.5q-104 0 -190 46t-146.5 125.5t-94.5 188.5t-34 233zM362 573q0 -143 53.5 -232t151.5 -89t151.5 89t53.5 232t-53 231.5t-152 88.5q-98 0 -151.5 -88t-53.5 -232zM1026 680h401 q-12 100 -62 164.5t-128 64.5q-86 0 -143.5 -64.5t-67.5 -164.5z" />
<glyph unicode="&#x178;" horiz-adv-x="1171" d="M8 0zM8 1470h297l283 -614l282 614h293l-432 -907v-563h-289v559zM248 1776q0 74 37 122t102 48q51 0 95 -48t44 -122q0 -35 -12 -65.5t-31.5 -53t-45 -36t-50.5 -13.5q-66 0 -102.5 49t-36.5 119zM645 1776q0 74 37 122t102 48q51 0 95.5 -48t44.5 -122 q0 -35 -12.5 -65.5t-32 -53t-45 -36t-50.5 -13.5q-66 0 -102.5 49t-36.5 119z" />
<glyph unicode="&#x2c6;" horiz-adv-x="808" d="M82 1294l321 330l324 -330l-92 -100l-232 192l-229 -192z" />
<glyph unicode="&#x2dc;" horiz-adv-x="1062" d="M82 1391q16 51 44 94t63.5 73.5t75.5 48t79 17.5q70 0 120 -28.5t91 -63.5t77 -63.5t73 -28.5q25 0 46 15t40.5 41t37 58.5t33.5 69.5l119 -106q-18 -59 -49 -104.5t-70 -76t-81 -46t-83 -15.5q-61 0 -108 28.5t-87 62.5t-76 62.5t-73 28.5q-47 0 -85 -52t-68 -122z" />
<glyph unicode="&#x2000;" horiz-adv-x="975" />
<glyph unicode="&#x2001;" horiz-adv-x="1950" />
<glyph unicode="&#x2002;" horiz-adv-x="975" />
<glyph unicode="&#x2003;" horiz-adv-x="1950" />
<glyph unicode="&#x2004;" horiz-adv-x="650" />
<glyph unicode="&#x2005;" horiz-adv-x="487" />
<glyph unicode="&#x2006;" horiz-adv-x="325" />
<glyph unicode="&#x2007;" horiz-adv-x="325" />
<glyph unicode="&#x2008;" horiz-adv-x="243" />
<glyph unicode="&#x2009;" horiz-adv-x="390" />
<glyph unicode="&#x200a;" horiz-adv-x="108" />
<glyph unicode="&#x2010;" horiz-adv-x="514" d="M45 662v260h424v-260h-424z" />
<glyph unicode="&#x2011;" horiz-adv-x="514" d="M45 662v260h424v-260h-424z" />
<glyph unicode="&#x2012;" horiz-adv-x="514" d="M45 662v260h424v-260h-424z" />
<glyph unicode="&#x2013;" horiz-adv-x="1067" d="M45 662v260h977v-260h-977z" />
<glyph unicode="&#x2014;" horiz-adv-x="1869" d="M45 662v260h1780v-260h-1780z" />
<glyph unicode="&#x2018;" horiz-adv-x="378" d="M53 1280q0 315 234 344v-86q-45 -12 -66.5 -29.5t-32.5 -60.5h11q25 0 49 -14.5t43.5 -37t32 -53t12.5 -63.5q0 -37 -12.5 -67.5t-32 -53t-46 -36t-55.5 -13.5q-63 0 -100 49t-37 121z" />
<glyph unicode="&#x2019;" horiz-adv-x="382" d="M43 1360q0 76 41 123t106 47q57 0 98.5 -47t41.5 -123q0 -137 -58.5 -232.5t-177.5 -111.5v90q43 6 67.5 25.5t31.5 62.5h-3q-66 0 -106.5 47t-40.5 119z" />
<glyph unicode="&#x201a;" horiz-adv-x="378" d="M43 168q0 74 39 122t102 48q53 0 97.5 -48t44.5 -122q0 -63 -14.5 -123.5t-44 -109t-76 -78t-109.5 -33.5v78q45 14 70.5 33.5t31.5 64.5h-4q-63 0 -100 49t-37 119z" />
<glyph unicode="&#x201c;" horiz-adv-x="757" d="M53 1110zM53 1280q0 315 234 344v-86q-45 -12 -66.5 -29.5t-32.5 -60.5h11q25 0 49 -14.5t43.5 -37t32 -53t12.5 -63.5q0 -37 -12.5 -67.5t-32 -53t-46 -36t-55.5 -13.5q-63 0 -100 49t-37 121zM432 1280q0 315 234 344v-86q-45 -12 -66.5 -29.5t-32.5 -60.5h11 q25 0 49 -14.5t43.5 -37t32 -53t12.5 -63.5q0 -37 -12.5 -67.5t-32 -53t-46 -36t-55.5 -13.5q-63 0 -100 49t-37 121z" />
<glyph unicode="&#x201d;" horiz-adv-x="765" d="M43 1016zM43 1360q0 76 41 123t106 47q57 0 98.5 -47t41.5 -123q0 -137 -58.5 -232.5t-177.5 -111.5v90q43 6 67.5 25.5t31.5 62.5h-3q-66 0 -106.5 47t-40.5 119zM426 1360q0 76 41 123t106 47q57 0 98.5 -47t41.5 -123q0 -137 -58.5 -232.5t-177.5 -111.5v90 q43 6 67.5 25.5t31.5 62.5h-3q-66 0 -106.5 47t-40.5 119z" />
<glyph unicode="&#x201e;" horiz-adv-x="757" d="M43 0zM43 168q0 74 39 122t102 48q53 0 97.5 -48t44.5 -122q0 -63 -14.5 -123.5t-44 -109t-76 -78t-109.5 -33.5v78q45 14 70.5 33.5t31.5 64.5h-4q-63 0 -100 49t-37 119zM422 168q0 74 39 122t102 48q53 0 97.5 -48t44.5 -122q0 -63 -14.5 -123.5t-44 -109t-76 -78 t-109.5 -33.5v78q45 14 70.5 33.5t31.5 64.5h-4q-63 0 -100 49t-37 119z" />
<glyph unicode="&#x2022;" horiz-adv-x="942" d="M145 725q0 66 26 125t70 103t103 71t127 27t127 -27t103 -71t70 -103t26 -125q0 -68 -26 -128t-70 -104t-103 -70t-127 -26t-127 26t-103 70t-70 104t-26 128z" />
<glyph unicode="&#x2026;" horiz-adv-x="2060" d="M125 0zM125 168q0 74 37 122t103 48q51 0 95 -48t44 -122q0 -35 -12.5 -65.5t-32 -53t-44.5 -36t-50 -13.5q-66 0 -103 49t-37 119zM890 168q0 74 37 122t103 48q51 0 95 -48t44 -122q0 -35 -12.5 -65.5t-32 -53t-44.5 -36t-50 -13.5q-66 0 -103 49t-37 119zM1656 168 q0 74 37 122t103 48q51 0 95 -48t44 -122q0 -35 -12.5 -65.5t-32 -53t-44.5 -36t-50 -13.5q-66 0 -103 49t-37 119z" />
<glyph unicode="&#x202f;" horiz-adv-x="390" />
<glyph unicode="&#x2039;" horiz-adv-x="628" d="M109 608v172l432 224v-191l-254 -119l254 -116v-185z" />
<glyph unicode="&#x203a;" horiz-adv-x="628" d="M109 393v189l251 118l-251 117v187l432 -218v-170z" />
<glyph unicode="&#x205f;" horiz-adv-x="487" />
<glyph unicode="&#x20ac;" horiz-adv-x="1292" d="M33 471l30 215h62v115h-92l30 209h101q66 242 208 361.5t353 119.5q268 0 430 -180l-143 -240q-53 72 -121 101.5t-166 29.5q-92 0 -157.5 -44t-106.5 -148h518l-131 -209h-449v-115h402l-127 -215h-209q39 -104 107.5 -152.5t160.5 -48.5q37 0 75 11.5t72.5 30t66.5 43 t54 48.5l220 -149q-184 -274 -496 -274q-203 0 -349.5 128t-211.5 363h-131z" />
<glyph unicode="&#x2122;" horiz-adv-x="1816" d="M72 1272v198h684v-198h-236v-764h-211v764h-237zM883 508v962h239l172 -479l170 479h230v-962h-201v502l-180 -502h-35l-197 510v-510h-198z" />
<glyph unicode="&#x25fc;" horiz-adv-x="1146" d="M0 0v1147h1147v-1147h-1147z" />
<glyph unicode="&#xfb01;" horiz-adv-x="1114" d="M25 0zM25 885v260h108v35q0 178 85 268t239 90q43 0 72.5 -5t56.5 -13v-242q-23 8 -46.5 12t-56.5 4q-59 0 -80.5 -28.5t-21.5 -85.5v-35h207v-260h-193v-885h-262v885h-108zM721 1374q0 74 37.5 122t105.5 48q57 0 99 -48t42 -122q0 -72 -43 -119t-98 -47 q-68 0 -105.5 47.5t-37.5 118.5zM731 0v1145h264v-1145h-264z" />
<glyph unicode="&#xfb02;" horiz-adv-x="1118" d="M25 0zM25 885v260h108v35q0 178 85 268t239 90q43 0 72.5 -5t56.5 -13v-242q-23 8 -46.5 12t-56.5 4q-59 0 -80.5 -28.5t-21.5 -85.5v-35h207v-260h-193v-885h-262v885h-108zM733 0v1407l262 115v-1522h-262z" />
</font>
</defs>
</svg>
