<?xml version="1.0" standalone="no"?>
<!DOCTYPE svg PUBLIC "-//W3C//DTD SVG 1.1//EN" "http://www.w3.org/Graphics/SVG/1.1/DTD/svg11.dtd" >
<svg xmlns="http://www.w3.org/2000/svg" xmlns:xlink="http://www.w3.org/1999/xlink" version="1.1">
<metadata></metadata>
<defs>
<font id="blue_highwayregular" horiz-adv-x="1165" >
<font-face units-per-em="2048" ascent="1556" descent="-492" />
<missing-glyph horiz-adv-x="614" />
<glyph unicode="&#x28;C&#x29;" horiz-adv-x="1626" d="M78 735q0 156 57.5 294t156.5 240.5t233 162t286 59.5t286 -59.5t233.5 -162t157.5 -240.5t58 -294q0 -158 -58 -295t-157.5 -239.5t-233.5 -161.5t-286 -59t-286 59t-233 161.5t-156.5 239.5t-57.5 295zM201 735q0 -127 47 -238.5t130 -194.5t194.5 -130t238.5 -47 t239.5 47t195.5 130t131 194.5t48 238.5t-48 239.5t-131 195.5t-195.5 131.5t-239.5 48.5t-238.5 -48.5t-194.5 -131.5t-130 -195.5t-47 -239.5zM475 743q0 92 23.5 171t67.5 137.5t107.5 91.5t141.5 33q197 0 281 -152l-115 -74q-66 86 -166 86q-98 0 -152.5 -78.5 t-54.5 -214.5q0 -61 15.5 -114.5t44 -92t67.5 -61t86 -22.5q59 0 96 21.5t64 51.5l106 -73q-92 -141 -272 -142q-74 0 -136.5 33t-107.5 90.5t-70.5 137t-25.5 171.5z" />
<glyph unicode="&#x28;R&#x29;" horiz-adv-x="1626" d="M78 735q0 156 57.5 294t156.5 240.5t233 162t286 59.5t286 -59.5t233.5 -162t157.5 -240.5t58 -294q0 -158 -58 -295t-157.5 -239.5t-233.5 -161.5t-286 -59t-286 59t-233 161.5t-156.5 239.5t-57.5 295zM201 735q0 -127 47 -238.5t130 -194.5t194.5 -130t238.5 -47 t239.5 47t195.5 130t131 194.5t48 238.5t-48 239.5t-131 195.5t-195.5 131.5t-239.5 48.5t-238.5 -48.5t-194.5 -131.5t-130 -195.5t-47 -239.5zM565 324v841h297q129 0 196.5 -66.5t67.5 -189.5q0 -92 -44 -150.5t-115 -80.5l161 -354h-137l-149 331h-150v-331h-127z M692 780h180q129 0 129 125q0 133 -129 133h-180v-258z" />
<glyph horiz-adv-x="0" />
<glyph unicode="&#xd;" horiz-adv-x="614" />
<glyph horiz-adv-x="614" />
<glyph unicode=" "  horiz-adv-x="614" />
<glyph unicode="&#x09;" horiz-adv-x="614" />
<glyph unicode="&#xa0;" horiz-adv-x="614" />
<glyph unicode="!" horiz-adv-x="473" d="M117 147q0 63 33.5 106.5t87.5 43.5q43 0 80.5 -43t37.5 -107q0 -31 -10 -57.5t-27.5 -45.5t-39 -31.5t-41.5 -12.5q-53 0 -87 44t-34 103zM123 862v608h219v-608l-53 -416h-99z" />
<glyph unicode="&#x22;" horiz-adv-x="655" d="M76 907zM76 1544h188l-41 -637h-112zM389 1544h188l-41 -637h-112z" />
<glyph unicode="#" horiz-adv-x="1310" d="M76 369v166h268l80 407h-252v168h291l65 360h134l-70 -360h293l73 360h127l-71 -360h223v-168h-258l-86 -407h248v-166h-277l-80 -369h-122l73 369h-295l-78 -369h-124l71 369h-233zM473 532h295l86 412h-299z" />
<glyph unicode="$" horiz-adv-x="1077" d="M84 1049q0 111 88 193.5t254 94.5v133h219v-124q86 -10 159 -32t124 -54l-64 -209q-31 23 -88 43t-131 34v-264q180 -39 266 -124t86 -232q0 -315 -352 -373v-135h-219v131q-98 12 -182 34.5t-154 57.5l70 201q53 -29 118.5 -52.5t147.5 -37.5v360q-342 102 -342 355z M319 1026q0 -33 28 -63.5t79 -47.5v224q-57 -6 -82 -37t-25 -76zM645 340q139 47 139 168q0 47 -38.5 84t-100.5 59v-311z" />
<glyph unicode="%" horiz-adv-x="1654" d="M102 0zM103 1083q0 205 74.5 311.5t222.5 106.5q154 0 229.5 -106.5t75.5 -311.5t-75.5 -312.5t-225.5 -107.5q-147 0 -224 107.5t-77 312.5zM142 0l1198 1470h174l-1204 -1470h-168zM244 1083q0 -274 160 -274t160 274q0 137 -36 209t-124 72q-86 0 -123 -72t-37 -209z M950 387q0 205 74.5 311.5t222.5 106.5q154 0 229.5 -106.5t75.5 -311.5t-75.5 -312.5t-225.5 -107.5q-147 0 -224 107.5t-77 312.5zM1091 387q0 -274 160 -274t160 274q0 137 -36 209t-124 72q-86 0 -123 -72t-37 -209z" />
<glyph unicode="&#x26;" horiz-adv-x="1380" d="M59 408q0 80 22.5 142t58.5 111.5t82 86t95 63.5q-98 78 -139 163t-41 189q0 94 40 157.5t102.5 101.5t136 53.5t141.5 15.5q371 0 383 -309l-240 -86q-10 104 -48 145t-111 41q-152 0 -152 -162q0 -29 14.5 -63.5t67.5 -99t154.5 -171t277.5 -274.5q59 115 74 311h242 q0 -74 -13.5 -149.5t-34 -143t-45 -123t-45.5 -88.5l299 -319h-307l-147 168q-33 -47 -81 -82t-102.5 -58.5t-111 -35.5t-103.5 -12q-104 0 -190 28.5t-148.5 82.5t-96.5 134t-34 183zM309 438q0 -111 62.5 -165t173.5 -54q72 0 132 32t91 79l-322 332q-53 -35 -95 -90.5 t-42 -133.5z" />
<glyph unicode="'" horiz-adv-x="342" d="M76 1544h188l-41 -637h-112z" />
<glyph unicode="(" horiz-adv-x="686" d="M188 575q0 508 265 955h190q-147 -199 -219 -437.5t-72 -517.5q0 -494 297 -956h-196q-264 449 -265 956z" />
<glyph unicode=")" horiz-adv-x="686" d="M37 -381q297 463 297 956q0 279 -72 517.5t-219 437.5h190q264 -446 265 -955q0 -508 -265 -956h-196z" />
<glyph unicode="*" horiz-adv-x="1036" d="M59 1163l66 117l332 -195l-11 385h129v-385l328 203l70 -117l-336 -188l338 -182l-66 -117l-331 197l10 -387h-129v385l-328 -203l-68 117l336 188z" />
<glyph unicode="+" d="M63 633v186h426v424h187v-424h424v-186h-424v-426h-187v426h-426z" />
<glyph unicode="," horiz-adv-x="419" d="M88 147q0 63 34 106.5t87 43.5q43 0 81 -43t38 -107q0 -61 -12.5 -117.5t-38 -100.5t-62.5 -73.5t-86 -37.5v35q53 12 76.5 43.5t32.5 103.5h-37q-53 0 -83 45t-30 102z" />
<glyph unicode="-" horiz-adv-x="473" d="M45 686v217h383v-217h-383z" />
<glyph unicode="." horiz-adv-x="440" d="M102 147q0 63 31 106.5t84 43.5q47 0 83 -43t36 -107q0 -59 -36 -103t-83 -44q-53 0 -84 44t-31 103z" />
<glyph unicode="/" horiz-adv-x="774" d="M25 -197l557 1727h166l-560 -1727h-163z" />
<glyph unicode="0" horiz-adv-x="1277" d="M102 735q0 367 135.5 561.5t397.5 194.5q270 0 406.5 -193.5t136.5 -562.5t-134.5 -562t-404.5 -193q-260 0 -398.5 193.5t-138.5 561.5zM319 735q0 -276 80 -405t240 -129t241 129t81 405q0 268 -74 405.5t-248 137.5q-166 0 -243 -137t-77 -406z" />
<glyph unicode="1" horiz-adv-x="544" d="M59 1137v200q70 4 119 39t62 94h174v-1470h-217v1137h-138z" />
<glyph unicode="2" horiz-adv-x="1079" d="M109 0v117q0 125 20.5 221t61 172t105 135.5t150.5 108.5q57 33 112.5 57.5t96.5 55t67 75.5t26 121q0 92 -49.5 142t-149.5 50q-88 0 -156.5 -30.5t-126.5 -122.5l-147 190q78 100 185.5 149.5t256.5 49.5q88 0 164 -27.5t129 -81t84 -131t31 -176.5q0 -104 -29 -180 t-78 -132t-116.5 -100.5t-145.5 -82.5q-131 -66 -186.5 -156t-55.5 -207h611v-217h-860z" />
<glyph unicode="3" horiz-adv-x="1026" d="M90 188l186 134q29 -59 83.5 -93t136.5 -34q45 0 85 17t69.5 49t46 75t16.5 94q0 135 -63.5 195.5t-168.5 60.5h-86v217h86q170 0 170 197q0 78 -41 126t-121 48q-68 0 -98.5 -23.5t-58.5 -64.5l-182 71q10 39 38.5 80t72.5 75t102.5 56.5t130.5 22.5q74 0 139 -24.5 t113.5 -71.5t76 -118t27.5 -163q0 -117 -37 -190.5t-113 -116.5q43 -14 84 -47t74 -81t53.5 -110.5t20.5 -136.5q0 -98 -30 -182t-86 -143.5t-137 -93t-185 -33.5q-291 0 -404 208z" />
<glyph unicode="4" horiz-adv-x="1116" d="M55 381v184l590 905h234v-874h151v-215h-151v-381h-215v381h-609zM307 596h357v547z" />
<glyph unicode="5" horiz-adv-x="1114" d="M109 94l116 217q78 -57 149.5 -80.5t141.5 -23.5q125 0 207 69.5t82 204.5q0 70 -20.5 124t-54.5 90t-78 54.5t-91 18.5q-57 0 -112.5 -24.5t-106.5 -79.5l-213 90l57 716h742v-219h-545l-31 -340q45 41 103.5 60.5t115.5 19.5q211 0 327 -135t116 -377q0 -123 -37 -216 t-103.5 -156.5t-157 -95t-196.5 -31.5q-80 0 -141.5 8t-109.5 23.5t-87 36t-73 46.5z" />
<glyph unicode="6" horiz-adv-x="1052" d="M92 565q0 180 46 342t128 285t193.5 198.5t242.5 86.5l37 -205q-76 -16 -145.5 -47t-125.5 -84.5t-97 -132t-60 -191.5q20 27 51 52.5t68 45t76 31.5t76 12q84 0 154.5 -33.5t121.5 -96t80 -148.5t29 -191q0 -252 -123 -380.5t-328 -128.5q-98 0 -176 40.5t-133 116.5 t-85 184.5t-30 243.5zM307 475q0 -129 58.5 -204.5t162.5 -75.5q106 0 174 74.5t68 203.5t-64.5 204t-164.5 75q-106 0 -170 -74t-64 -203z" />
<glyph unicode="7" horiz-adv-x="1032" d="M88 1251v219h879v-251q-96 -88 -176 -220.5t-138.5 -292t-91.5 -341t-35 -365.5h-233q10 186 41 367.5t83 344t124.5 301t167.5 238.5h-621z" />
<glyph unicode="8" horiz-adv-x="1079" d="M94 440q0 74 18.5 140.5t49.5 121t72.5 91t91.5 51.5q-74 53 -103.5 128t-29.5 161q0 166 93 262t253 96q172 0 268 -87t96 -274q0 -88 -32.5 -164.5t-118.5 -131.5q57 -12 103 -50.5t77 -91.5t47 -118.5t16 -133.5q0 -223 -121.5 -341.5t-332.5 -118.5 q-102 0 -184.5 30.5t-140.5 90t-90 144.5t-32 195zM297 444q0 -129 69.5 -195.5t180.5 -66.5q113 0 180.5 60.5t67.5 201.5q0 275 -248 275q-117 0 -183.5 -66.5t-66.5 -208.5zM371 1102q0 -86 48 -131t128 -45q76 0 121 49t45 127q0 88 -40 138t-126 50q-92 0 -134 -50 t-42 -138z" />
<glyph unicode="9" horiz-adv-x="1058" d="M84 973q0 254 121 386t338 132q98 0 177 -42t133 -119t83 -187.5t29 -245.5q0 -182 -46.5 -345t-128 -287t-195.5 -199.5t-247 -81.5l-26 206q72 6 140 40t125.5 93.5t97.5 144.5t56 196q-35 -68 -112.5 -114t-155.5 -46q-86 0 -157.5 34.5t-123 96t-80 147.5t-28.5 191z M289 991q0 -129 60.5 -203.5t164.5 -74.5t166.5 72.5t62.5 201.5t-58 206t-163 77q-104 0 -168.5 -77t-64.5 -202z" />
<glyph unicode=":" horiz-adv-x="477" d="M117 147q0 63 36.5 106.5t88.5 43.5q47 0 81.5 -43t34.5 -107q0 -59 -34.5 -103t-81.5 -44q-51 0 -88 44t-37 103zM117 946q0 61 36.5 104.5t88.5 43.5q47 0 81.5 -43t34.5 -105q0 -61 -34.5 -104t-81.5 -43q-51 0 -88 43t-37 104z" />
<glyph unicode=";" horiz-adv-x="483" d="M125 147q0 63 32.5 106.5t88.5 43.5q49 0 87 -43t38 -107q0 -137 -50.5 -226t-154.5 -103v35q61 16 90 51t31 96h-45q-53 0 -85 42t-32 105zM125 946q0 61 32.5 104.5t88.5 43.5q49 0 87 -43t38 -105q0 -61 -37 -104t-88 -43q-57 0 -89 43t-32 104z" />
<glyph unicode="&#x3c;" d="M63 633v188l1037 408v-207l-836 -297l836 -295v-207z" />
<glyph unicode="=" d="M63 326v186h1037v-186h-1037zM63 940v186h1037v-186h-1037z" />
<glyph unicode="&#x3e;" d="M63 223v207l836 295l-836 297v207l1037 -408v-188z" />
<glyph unicode="?" horiz-adv-x="929" d="M78 1323q66 88 165 128t234 40q86 0 155.5 -25.5t120 -75t78 -121t27.5 -163.5q0 -68 -18.5 -122t-49 -100t-70.5 -87t-83 -80q-39 -35 -59.5 -68t-29.5 -67.5t-12.5 -75.5t-5.5 -90h-221v20q0 135 44 241.5t126 182.5q43 39 72 66.5t45 54.5t23.5 55.5t7.5 69.5 q0 76 -41 118t-113 42q-88 0 -159.5 -29t-125.5 -96zM297 147q0 63 37 106.5t88 43.5q53 0 87 -43t34 -107q0 -59 -34 -103t-87 -44q-51 0 -88 44t-37 103z" />
<glyph unicode="@" horiz-adv-x="1277" d="M82 573q0 172 45 313.5t125 242t187.5 155.5t232.5 55q117 0 218 -38.5t177 -117.5t119 -198t43 -276q0 -92 -17.5 -169t-53.5 -132.5t-89 -86t-127 -30.5q-47 0 -82 15.5t-57 53.5q-27 -27 -72 -49t-104 -22q-100 0 -153.5 81t-53.5 224q0 74 19.5 127t53 89t78.5 52.5 t97 16.5q29 0 51 -12.5t41 -28.5v34h119v-405q10 -23 30.5 -37t51.5 -14q45 0 77.5 62.5t32.5 207.5q0 260 -100.5 385t-282.5 125q-121 0 -205 -49t-136 -131t-76.5 -190.5t-24.5 -227.5q0 -113 24.5 -212t74.5 -176t124 -129t172 -71l-29 -155q-133 20 -233 89.5t-166 169 t-98.5 219.5t-32.5 240zM551 594q0 -78 26.5 -124t75.5 -46q57 0 99 37v266q-31 39 -84 39q-33 0 -55.5 -15.5t-36 -40t-19.5 -55t-6 -61.5z" />
<glyph unicode="A" horiz-adv-x="1196" d="M12 0l434 1470h306l432 -1470h-234l-82 283h-540l-78 -283h-238zM389 500h418l-211 747z" />
<glyph unicode="B" horiz-adv-x="1144" d="M123 0v1470h475q76 0 145.5 -25.5t123 -75.5t85 -124t31.5 -168t-36 -162.5t-97 -117.5q45 -10 88 -37t77 -70t54.5 -103.5t20.5 -140.5q0 -211 -124 -328.5t-360 -117.5h-483zM342 217h305q88 0 145.5 57.5t57.5 161.5q0 98 -52.5 153.5t-144.5 55.5h-311v-428zM342 862 h260q37 0 67.5 17.5t52 45t34 63.5t12.5 73q0 82 -48 136t-118 54h-260v-389z" />
<glyph unicode="C" horiz-adv-x="1282" d="M102 735q0 160 41 298t118 239.5t186.5 160t248.5 58.5q338 0 492 -266l-184 -123q-53 86 -122 120.5t-186 34.5q-86 0 -154.5 -36.5t-116.5 -105t-73.5 -165t-25.5 -215.5q0 -111 27.5 -206t78.5 -164.5t120 -109.5t153 -40q106 0 172.5 39t115.5 94l181 -121 q-161 -247 -475 -247h-3q-131 0 -239.5 57t-187.5 157.5t-123 238.5t-44 302z" />
<glyph unicode="D" horiz-adv-x="1310" d="M123 0v1470h412q154 0 280.5 -54t216.5 -151.5t140.5 -231.5t50.5 -292q0 -172 -53.5 -310t-146.5 -233.5t-222 -146.5t-279 -51h-399zM342 221h147q119 0 213.5 38t160 107.5t101 164t35.5 208.5q0 117 -32.5 211t-97 161t-160 103.5t-220.5 36.5h-147v-1030z" />
<glyph unicode="E" horiz-adv-x="1021" d="M123 0v1470h784v-219h-565v-389h354v-217h-354v-428h565v-217h-784z" />
<glyph unicode="F" horiz-adv-x="958" d="M123 0v1470h784v-219h-565v-389h365v-217h-365v-645h-219z" />
<glyph unicode="G" horiz-adv-x="1349" d="M102 735q0 174 43 314.5t122 238.5t187.5 150.5t237.5 52.5q180 0 297 -66.5t201 -203.5l-186 -119q-51 86 -120 120.5t-173 34.5q-174 0 -276.5 -128t-102.5 -394q0 -115 25.5 -211t72.5 -166.5t113.5 -110.5t148.5 -40q154 0 229.5 83t75.5 230h-282v219h547v-98 q0 -135 -38 -255t-110 -210t-178.5 -143t-243.5 -53q-133 0 -241.5 58t-186.5 159.5t-120 239.5t-42 298z" />
<glyph unicode="H" horiz-adv-x="1249" d="M123 0v1470h219v-608h565v608h219v-1470h-219v645h-565v-645h-219z" />
<glyph unicode="I" horiz-adv-x="481" d="M131 0v1470h219v-1470h-219z" />
<glyph unicode="J" horiz-adv-x="768" d="M0 4l27 207q55 -6 100 -6q147 0 230 82t83 270v913h217v-944q0 -100 -35.5 -196.5t-102 -172t-160 -121.5t-207.5 -46q-63 0 -100.5 5t-51.5 9z" />
<glyph unicode="K" horiz-adv-x="1161" d="M123 0v1470h219v-780l520 780h264l-421 -641l452 -829h-272l-336 631l-207 -305v-326h-219z" />
<glyph unicode="L" horiz-adv-x="993" d="M123 0v1470h219v-1253h614v-217h-833z" />
<glyph unicode="M" horiz-adv-x="1466" d="M123 0v1470h303l319 -897l314 897h284v-1470h-217v1059l-374 -1059h-13l-397 1061v-1061h-219z" />
<glyph unicode="N" horiz-adv-x="1267" d="M123 0v1470h270l533 -1048v1048h219v-1470h-250l-555 1094v-1094h-217z" />
<glyph unicode="O" horiz-adv-x="1384" d="M102 735q0 178 43 318.5t121 238t186.5 148.5t239.5 51t239.5 -51t186.5 -148.5t121 -238t43 -318.5q0 -176 -43 -316t-121 -237.5t-186.5 -149.5t-239.5 -52t-239.5 52t-186.5 149.5t-121 237.5t-43 316zM317 735q0 -133 29 -232.5t80 -165t118.5 -97t147.5 -31.5 t147.5 31.5t119 97t80 165t28.5 232.5q0 268 -100.5 398.5t-274.5 130.5t-274.5 -130t-100.5 -399z" />
<glyph unicode="P" horiz-adv-x="1142" d="M123 0v1470h518q100 0 185 -27.5t146.5 -82.5t95.5 -139t34 -197q0 -215 -126 -329.5t-335 -114.5h-299v-580h-219zM342 797h317q225 0 226 221q0 233 -226 233h-317v-454z" />
<glyph unicode="Q" horiz-adv-x="1384" d="M102 735q0 178 43 318.5t121 238t186.5 148.5t239.5 51t239.5 -51t186.5 -148.5t121 -238t43 -318.5q0 -186 -45 -328.5t-131 -240.5l111 -143l-164 -132l-105 148q-115 -59 -256 -59q-131 0 -239.5 52t-186.5 149.5t-121 237.5t-43 316zM317 735q0 -133 29 -233.5 t80 -167t118.5 -100t147.5 -33.5q68 0 123 22l-205 269l162 137l199 -279q45 66 70.5 161t25.5 224q0 268 -100.5 398.5t-274.5 130.5t-274.5 -130t-100.5 -399z" />
<glyph unicode="R" horiz-adv-x="1167" d="M123 0v1470h518q229 0 345 -117.5t116 -328.5q0 -160 -75 -262.5t-204 -143.5l283 -618h-240l-262 580h-262v-580h-219zM342 797h317q225 0 226 221q0 233 -226 233h-317v-454z" />
<glyph unicode="S" horiz-adv-x="1093" d="M86 102l86 215q72 -49 160 -81.5t205 -32.5q113 0 183.5 50t70.5 138q0 80 -72 140.5t-189 127.5q-80 47 -174 103.5t-166 134.5q-49 53 -69.5 105.5t-20.5 138.5t37 151.5t97.5 109.5t140.5 66.5t166 22.5q66 0 126 -7t112 -20.5t92 -33t65 -44.5l-62 -225 q-55 47 -133.5 74t-183.5 27q-106 0 -173 -40t-67 -118q0 -33 25 -64.5t62.5 -60.5t81.5 -54.5t85 -45.5q94 -53 174 -102.5t138.5 -104t92.5 -119t34 -147.5q0 -98 -37 -177t-101.5 -134.5t-152.5 -85t-189 -29.5q-147 0 -256.5 34.5t-187.5 87.5z" />
<glyph unicode="T" horiz-adv-x="1099" d="M45 1251v219h1010v-219h-383v-1251h-240v1251h-387z" />
<glyph unicode="U" horiz-adv-x="1230" d="M115 528v942h217v-942q0 -184 78.5 -257.5t214.5 -73.5q129 0 201.5 73.5t72.5 257.5v942h217v-942q0 -123 -31.5 -224t-94 -174t-154.5 -111.5t-211 -38.5q-121 0 -215.5 38.5t-160 110.5t-100 173t-34.5 226z" />
<glyph unicode="V" horiz-adv-x="1193" d="M12 1470h254l330 -1196l332 1196h254l-451 -1470h-278z" />
<glyph unicode="W" horiz-adv-x="1822" d="M16 1470h236l268 -1163l268 1163h240l270 -1163l269 1163h239l-358 -1470h-305l-232 1063l-239 -1063h-305z" />
<glyph unicode="X" horiz-adv-x="1189" d="M25 0l426 741l-426 729h262l311 -540l315 540h252l-436 -737l420 -733h-256l-305 551l-307 -551h-256z" />
<glyph unicode="Y" horiz-adv-x="1126" d="M8 1470h248l309 -690l309 690h244l-430 -909v-561h-248v557z" />
<glyph unicode="Z" horiz-adv-x="1077" d="M84 0v223l676 1043h-676v204h922v-227l-678 -1040h682v-203h-926z" />
<glyph unicode="[" horiz-adv-x="669" d="M209 -381v1911h409v-160h-264v-1589h264v-162h-409z" />
<glyph unicode="\" horiz-adv-x="774" d="M25 1530h165l558 -1727h-164z" />
<glyph unicode="]" horiz-adv-x="669" d="M51 -219h264v1589h-264v160h410v-1911h-410v162z" />
<glyph unicode="^" d="M80 434l409 1036h189l407 -1036h-206l-297 836l-295 -836h-207z" />
<glyph unicode="_" horiz-adv-x="1169" d="M0 -96h1169v-166h-1169v166z" />
<glyph unicode="`" horiz-adv-x="569" d="M82 1495l98 129l307 -293l-67 -92z" />
<glyph unicode="a" horiz-adv-x="1019" d="M61 385q0 190 110 291.5t288 101.5q82 0 136 -23.5t85 -56.5q0 72 -14.5 118t-42 71.5t-68.5 36t-92 10.5q-59 0 -103.5 -19.5t-76.5 -50.5l-101 168q53 57 133 89t181 32q88 0 162.5 -29.5t128 -85t83 -133.5t29.5 -174v-731h-217v82q-29 -35 -89.5 -68.5t-172.5 -33.5 q-76 0 -141.5 28.5t-113.5 80.5t-76 128t-28 168zM283 389q0 -41 16 -74.5t44 -58.5t63.5 -39t76.5 -14q27 0 56.5 7t57.5 21.5t49.5 33t33.5 42.5v187q-23 35 -72 60.5t-100 25.5q-225 0 -225 -191z" />
<glyph unicode="b" horiz-adv-x="1110" d="M123 0v1417l219 94v-462q27 45 89.5 74.5t168.5 29.5q199 0 303.5 -157.5t104.5 -442.5q0 -121 -30 -225.5t-84 -181t-133 -121.5t-177 -45q-86 0 -149.5 41.5t-92.5 97.5v-119h-219zM342 393q6 -27 24.5 -60.5t46 -63t64.5 -50t78 -20.5q59 0 105.5 28.5t77 76.5 t47 112.5t16.5 136.5q0 178 -56.5 280.5t-197.5 102.5q-80 0 -132.5 -60.5t-72.5 -148.5v-334z" />
<glyph unicode="c" horiz-adv-x="987" d="M102 575q0 125 35 231.5t97.5 183.5t147.5 120t187 43q123 0 207 -47t125 -113l-168 -135q-29 35 -66.5 53.5t-97.5 18.5q-111 0 -177 -98.5t-66 -258.5q0 -370 253 -370h1q47 0 84.5 21.5t68.5 56.5l180 -134q-135 -167 -344 -167q-109 0 -195.5 43t-147 120.5 t-92.5 187t-32 244.5z" />
<glyph unicode="d" horiz-adv-x="1122" d="M102 543q0 137 32 250.5t88.5 193.5t135 124t170.5 44t158 -30.5t96 -82.5v375l217 94v-1511h-217v119q-41 -66 -103.5 -102.5t-141.5 -36.5q-94 0 -174 43t-137.5 118.5t-90.5 178t-33 223.5zM319 535q0 -141 62.5 -234.5t181.5 -93.5q86 0 144.5 53t74.5 141v336 q-10 35 -29.5 68t-47 59.5t-62.5 42t-74 15.5q-135 0 -192.5 -103.5t-57.5 -283.5z" />
<glyph unicode="e" horiz-adv-x="1099" d="M102 557q0 137 33 247.5t93.5 188.5t147.5 119t195 41q98 0 180.5 -35t140.5 -105.5t91 -178t33 -250.5q0 -51 -2 -89t-4 -51h-684q0 -53 19.5 -97t52 -76.5t77.5 -50t98 -17.5q59 0 102.5 19.5t76.5 58.5l147 -136q-66 -86 -149.5 -125.5t-182.5 -39.5 q-229 0 -347 149.5t-118 427.5zM326 659h469q-4 129 -66 204t-160 75q-111 0 -175 -78t-68 -201z" />
<glyph unicode="f" horiz-adv-x="577" d="M25 915v218h108v86q0 150 79 234.5t232 84.5q27 0 52.5 -3t54.5 -7v-199q-23 4 -46.5 7t-47.5 3q-68 0 -92.5 -31.5t-24.5 -88.5v-86h215v-218h-205v-915h-217v915h-108z" />
<glyph unicode="g" horiz-adv-x="1099" d="M94 584q0 135 33 240.5t91 178t137 111.5t169 39q96 0 149.5 -35t82.5 -71v86h217v-961q0 -127 -27.5 -240.5t-82 -200.5t-135.5 -142.5t-185 -65.5l-41 221q117 29 182.5 113t65.5 231q-27 -39 -84.5 -68.5t-149.5 -29.5q-109 0 -187.5 46t-131 127t-78 189.5 t-25.5 231.5zM322 582q0 -174 52 -272.5t163 -98.5q104 0 153 39t66 88v444q-4 35 -20.5 63.5t-41 50.5t-55.5 34t-64 12q-135 0 -194 -97t-59 -263z" />
<glyph unicode="h" horiz-adv-x="1062" d="M123 0v1417l219 94v-469q18 39 87 75t167 36q80 0 146.5 -27.5t115.5 -80t76 -130t27 -176.5v-739h-218v717q0 113 -57 167t-143 54q-78 0 -130.5 -41t-70.5 -127v-770h-219z" />
<glyph unicode="i" horiz-adv-x="464" d="M111 1395q0 66 31.5 107.5t90.5 41.5q49 0 86 -42t37 -107q0 -59 -38 -102.5t-85 -43.5q-57 0 -89.5 43t-32.5 103zM123 0v1133h219v-1133h-219z" />
<glyph unicode="j" horiz-adv-x="483" d="M4 -262q80 16 110.5 74.5t30.5 150.5v1170h215v-1178q0 -72 -18 -143.5t-59 -132t-105.5 -102.5t-159.5 -54zM133 1395q0 66 36 107.5t85 41.5q55 0 88 -42t33 -107q0 -59 -34 -102.5t-87 -43.5q-49 0 -85 43t-36 103z" />
<glyph unicode="k" horiz-adv-x="989" d="M123 0v1417l219 94v-796l326 418h274l-324 -406l351 -727h-250l-250 539l-127 -158v-381h-219z" />
<glyph unicode="l" horiz-adv-x="462" d="M123 0v1417l217 94v-1511h-217z" />
<glyph unicode="m" horiz-adv-x="1683" d="M123 0v1133h219v-91q18 39 87 75t167 36q100 0 172 -29.5t111 -97.5q49 66 130 96.5t179 30.5q184 0 288.5 -107.5t104.5 -306.5v-739h-217v717q0 113 -57.5 167t-143.5 54q-39 0 -74.5 -14.5t-63.5 -41t-45 -63.5t-19 -80v-739h-218v717q0 113 -57 167t-143 54 q-78 0 -130.5 -41t-70.5 -127v-770h-219z" />
<glyph unicode="n" horiz-adv-x="1062" d="M123 0v1133h219v-91q18 39 87 75t167 36q80 0 146.5 -27.5t115.5 -80t76 -130t27 -176.5v-739h-218v717q0 113 -57 167t-143 54q-78 0 -130.5 -41t-70.5 -127v-770h-219z" />
<glyph unicode="o" horiz-adv-x="1122" d="M102 567q0 135 31 244t89.5 184.5t143 116.5t195.5 41q109 0 195 -41t144 -116.5t89 -184.5t31 -244t-31 -244.5t-89 -185.5t-144 -116.5t-195 -40.5t-194.5 40.5t-144 116.5t-89.5 185.5t-31 244.5zM561 211q240 0 240 356q0 355 -240 355q-239 0 -239 -352 q0 -359 239 -359z" />
<glyph unicode="p" horiz-adv-x="1122" d="M123 -477v1610h217v-119q41 66 103.5 102.5t142.5 36.5q94 0 174 -43t137 -119t90 -179t33 -222q0 -139 -32 -252t-88 -192.5t-135 -124t-171 -44.5t-157.5 31t-96.5 82v-473zM340 395q8 -35 28.5 -67.5t48 -59t62.5 -42t74 -15.5q135 0 192.5 103.5t57.5 283.5 q0 141 -62.5 234.5t-181.5 93.5q-86 0 -144.5 -53.5t-74.5 -141.5v-336z" />
<glyph unicode="q" horiz-adv-x="1110" d="M102 580q0 119 30 224t84 182t133 122t177 45q86 0 149.5 -42t92.5 -97v119h219v-1516l-219 -94v561q-27 -45 -89.5 -74.5t-168.5 -29.5q-199 0 -303.5 157.5t-104.5 442.5zM309 580q0 -178 56.5 -280.5t197.5 -102.5q80 0 132.5 60t72.5 149v333q-6 27 -24.5 61 t-46 63.5t-64.5 50t-78 20.5q-59 0 -105.5 -28.5t-77 -77t-47 -113t-16.5 -135.5z" />
<glyph unicode="r" horiz-adv-x="706" d="M123 0v1133h219v-78q27 47 83 72.5t128 25.5q66 0 113 -29l-74 -219q-37 31 -84 31q-72 0 -115 -40t-51 -126v-770h-219z" />
<glyph unicode="s" horiz-adv-x="915" d="M72 74l78 200q49 -33 130.5 -53t157.5 -20q82 0 136.5 29.5t54.5 97.5q0 45 -33 77.5t-87 61.5t-123 56.5t-140 62.5q-86 41 -130 98t-44 156q0 84 35.5 143t95 97t135.5 55.5t154 17.5q88 0 161.5 -22.5t132.5 -63.5l-65 -225q-45 39 -109.5 64.5t-142.5 25.5 q-27 0 -55.5 -2t-53 -12.5t-41 -30t-16.5 -51.5q0 -23 15.5 -40.5t56.5 -35.5q49 -23 129 -49.5t156.5 -72.5t132 -116.5t55.5 -179.5q0 -98 -35 -167t-95.5 -113t-140 -63t-169.5 -19q-78 0 -164 21.5t-172 72.5z" />
<glyph unicode="t" horiz-adv-x="632" d="M25 915v218h118v227l217 94v-321h203v-218h-203v-561q0 -78 30 -116.5t102 -38.5q25 0 52 6t52 20l-35 -227q-25 -10 -60.5 -14t-72.5 -4q-150 0 -217.5 95t-67.5 257v583h-118z" />
<glyph unicode="u" horiz-adv-x="1071" d="M111 393v740h217v-707q0 -113 55 -167t127 -54q182 0 219 168v760h219v-1133h-219v90q-18 -39 -89 -74.5t-175 -35.5q-76 0 -140.5 27.5t-112.5 79.5t-74.5 130t-26.5 176z" />
<glyph unicode="v" horiz-adv-x="933" d="M20 1133h234l217 -828l213 828h229l-325 -1133h-248z" />
<glyph unicode="w" horiz-adv-x="1511" d="M20 1133h234l190 -789l193 789h237l189 -789l194 789h234l-303 -1133h-248l-182 780l-193 -780h-248z" />
<glyph unicode="x" horiz-adv-x="933" d="M20 1133h261l192 -379l197 379h243l-323 -562l319 -571h-254l-194 385l-195 -385h-241l321 569z" />
<glyph unicode="y" horiz-adv-x="933" d="M20 1133h232l219 -832l211 832h231l-460 -1610h-230l135 473z" />
<glyph unicode="z" horiz-adv-x="931" d="M76 0v182l485 744h-461v207h742v-177l-488 -749h494v-207h-772z" />
<glyph unicode="{" horiz-adv-x="935" d="M88 487v170q178 6 254 78t76 203v270q0 322 307 322h184v-152h-159q-143 0 -144 -159v-279q0 -123 -60.5 -219t-205.5 -150q147 -51 206.5 -147t59.5 -219v-279q0 -160 144 -159h159v-152h-184q-307 0 -307 322v270q0 129 -76 200.5t-254 79.5z" />
<glyph unicode="|" horiz-adv-x="569" d="M199 -381v1911h172v-1911h-172z" />
<glyph unicode="}" horiz-adv-x="935" d="M27 -233h159q143 0 144 159v279q0 123 59.5 219t206.5 147q-145 53 -205.5 149.5t-60.5 219.5v279q0 160 -144 159h-159v152h184q307 0 307 -322v-270q0 -131 76 -202.5t254 -78.5v-170q-178 -8 -254 -79.5t-76 -200.5v-270q0 -322 -307 -322h-184v152z" />
<glyph unicode="~" d="M47 696q59 98 140 146.5t169 48.5q82 0 141.5 -27.5t107.5 -61.5t91 -61.5t92 -27.5q59 0 101.5 40t77.5 97l135 -105q-59 -98 -142 -150t-172 -52q-74 0 -131 27.5t-107 61.5t-97 61.5t-99 27.5q-53 0 -93 -34t-75 -89z" />
<glyph unicode="&#xa1;" horiz-adv-x="473" d="M117 1118q0 31 10 57.5t27.5 46t38 32t43.5 12.5q53 0 86.5 -44t33.5 -104q0 -63 -33.5 -106t-86.5 -43q-43 0 -81 43t-38 106zM131 -205v608l53 416h99l67 -416v-608h-219z" />
<glyph unicode="&#xa2;" horiz-adv-x="1077" d="M96 735q0 111 24.5 208t72 175t114 131.5t152.5 75.5v145h219v-139q193 -37 303 -219l-182 -117q-61 74 -121 103v-729q39 14 68.5 38.5t54.5 55.5l170 -119q-115 -170 -293 -207v-137h-219v143q-82 23 -148.5 76t-115 130t-74 175.5t-25.5 210.5zM309 735 q0 -117 40 -208t110 -138v698q-72 -41 -111 -132t-39 -220z" />
<glyph unicode="&#xa3;" horiz-adv-x="1163" d="M106 0v217h27q74 0 117 56.5t43 154.5v254h-94v219h94v170q0 82 20.5 158t68.5 134t125 93t187 35q133 0 206 -48t108 -118l-158 -131q-27 41 -67 62.5t-107 21.5q-78 0 -124 -51t-46 -146v-180h278v-219h-278v-270q0 -78 -23.5 -126t-50.5 -69h615v-217h-941z" />
<glyph unicode="&#xa5;" horiz-adv-x="1251" d="M72 1470h254l303 -581l303 581h250l-430 -774h338v-164h-338v-165h338v-160h-338v-207h-248v207h-363v160h363v165h-363v164h363z" />
<glyph unicode="&#xa6;" horiz-adv-x="569" d="M199 295h172v-676h-172v676zM199 854v676h172v-676h-172z" />
<glyph unicode="&#xa7;" horiz-adv-x="1140" d="M76 -51l125 143q68 -72 168 -103.5t194 -31.5q47 0 98.5 8t93.5 26.5t69.5 49.5t27.5 78q0 59 -35 93t-104 64q-43 23 -100.5 43.5t-117 44t-118 51t-103.5 65.5t-72.5 89.5t-27.5 120.5q0 88 52.5 151.5t138.5 92.5q-88 47 -139.5 106.5t-51.5 159.5q0 70 35 124t93 91 t134 56.5t160 19.5q139 0 259 -44t181 -132l-143 -115q-20 27 -56 46.5t-78 33.5t-86 21.5t-79 7.5q-41 0 -82 -7.5t-76 -22.5t-56.5 -37.5t-21.5 -53.5q0 -47 43 -72.5t97 -50.5q51 -25 111.5 -47.5t121 -47t117.5 -54t100 -69.5t69.5 -93.5t26.5 -124.5 q0 -92 -41.5 -154.5t-107.5 -101.5q150 -76 149 -252q0 -94 -40.5 -159.5t-107.5 -106.5t-150.5 -59.5t-170.5 -18.5q-139 0 -257.5 36.5t-241.5 135.5zM358 690q0 -51 42 -85t102.5 -57.5t127 -42t115.5 -38.5q47 20 77 55t30 92q0 51 -22.5 86t-58.5 58.5t-82 40t-91 32.5 q-41 -4 -83 -14t-77 -27.5t-57.5 -42t-22.5 -57.5z" />
<glyph unicode="&#xa8;" horiz-adv-x="792" d="M82 1440q0 63 30.5 106t84.5 43q47 0 82.5 -43t35.5 -106q0 -59 -35.5 -103.5t-82.5 -44.5q-53 0 -84 44t-31 104zM477 1440q0 63 31 106t84 43q47 0 83 -43t36 -106q0 -59 -36 -103.5t-83 -44.5q-53 0 -84 44t-31 104z" />
<glyph unicode="&#xaa;" horiz-adv-x="622" d="M53 1018q0 111 61.5 167t166.5 56q33 0 60.5 -8t47.5 -19q-4 53 -32.5 71t-73.5 18q-31 0 -55.5 -12.5t-43.5 -33.5l-67 111q35 35 80 55.5t104 20.5q104 0 165.5 -64.5t61.5 -175.5v-405h-139v26q-20 -16 -51 -27.5t-78 -11.5q-86 0 -146.5 62.5t-60.5 169.5zM199 1022 q0 -41 27.5 -65.5t68.5 -24.5q23 0 52.5 11t41.5 34v96q-12 16 -35.5 27.5t-48.5 11.5q-106 0 -106 -90z" />
<glyph unicode="&#xab;" horiz-adv-x="1220" d="M109 455zM109 657v158l413 213v-162l-270 -127l270 -127v-157zM719 657v158l413 213v-162l-270 -127l270 -127v-157z" />
<glyph unicode="&#xac;" d="M63 633v186h1037v-819h-187v633h-850z" />
<glyph unicode="&#xad;" horiz-adv-x="473" d="M45 686v217h383v-217h-383z" />
<glyph unicode="&#xaf;" horiz-adv-x="724" d="M82 1399v129h561v-129h-561z" />
<glyph unicode="&#xb0;" horiz-adv-x="841" d="M117 1186q0 63 23.5 118.5t64.5 96.5t96.5 65.5t118.5 24.5t118.5 -24.5t96.5 -65.5t65.5 -96.5t24.5 -118.5t-24.5 -118.5t-65.5 -97.5t-96.5 -65.5t-118.5 -23.5t-118.5 23.5t-96.5 65.5t-64.5 97t-23.5 119zM246 1184q0 -74 51 -124t123 -50t124 50t52 124 q0 37 -14.5 68.5t-38 55t-55 38t-68.5 14.5q-74 0 -124 -52.5t-50 -123.5z" />
<glyph unicode="&#xb1;" d="M63 0zM63 84h1037v-186h-1037v186zM63 633v186h426v424h187v-424h424v-186h-424v-426h-187v426h-426z" />
<glyph unicode="&#xb2;" horiz-adv-x="655" d="M80 676v73q0 135 45 219t143 134q29 14 57.5 28.5t50 31.5t35 39.5t13.5 57.5q0 43 -23.5 67.5t-72.5 24.5q-43 0 -80 -18.5t-72 -73.5l-94 125q88 117 254 117q104 0 167.5 -60.5t63.5 -173.5q0 -59 -16 -102t-44 -73.5t-66 -54.5t-79 -46q-59 -33 -89.5 -74t-34.5 -100 h329v-141h-487zM80 676z" />
<glyph unicode="&#xb3;" horiz-adv-x="626" d="M66 664zM66 794l120 84q18 -35 46 -54t69 -19q45 0 75 31.5t30 82.5q0 66 -32 95.5t-81 29.5h-60v144h60q80 0 80 92q0 35 -19.5 58.5t-56.5 23.5q-33 0 -48.5 -14.5t-31.5 -39.5l-119 50q6 23 22.5 48t43 46.5t61.5 35t76 13.5q86 0 143.5 -54.5t57.5 -158.5 q0 -59 -15.5 -98t-50.5 -66q43 -23 77 -77t34 -128q0 -111 -64.5 -183.5t-181.5 -72.5q-86 0 -142.5 33t-92.5 98z" />
<glyph unicode="&#xb4;" horiz-adv-x="569" d="M82 1331l307 293l98 -129l-337 -256z" />
<glyph unicode="&#xb6;" horiz-adv-x="1458" d="M68 1024q0 113 33.5 197t95 139t145.5 82.5t186 27.5h789v-1804h-219v1585h-236v-1585h-219v914h-115q-209 0 -334.5 114.5t-125.5 329.5zM285 1018q0 -221 225 -221h133v454h-133q-225 0 -225 -233z" />
<glyph unicode="&#xb7;" horiz-adv-x="440" d="M102 555zM102 702q0 63 31 106.5t84 43.5q47 0 83 -43t36 -107q0 -59 -36 -103t-83 -44q-53 0 -84 44t-31 103z" />
<glyph unicode="&#xb8;" horiz-adv-x="401" d="M82 -193q0 61 32.5 96.5t86.5 35.5q45 0 81.5 -35t36.5 -97q0 -123 -47 -197.5t-151 -86.5v33q27 6 46 13t31.5 19.5t19.5 33t11 54.5h-34q-53 0 -83 36t-30 95z" />
<glyph unicode="&#xb9;" horiz-adv-x="360" d="M51 676zM51 1288v131q41 2 67.5 21.5t31.5 50.5h116v-815h-139v612h-76z" />
<glyph unicode="&#xba;" horiz-adv-x="677" d="M78 1116q0 154 67.5 241t190.5 87q125 0 192.5 -87t67.5 -241t-67.5 -242t-192.5 -88q-123 0 -190.5 88.5t-67.5 241.5zM219 1116q0 -178 117 -178t117 178q0 180 -117 180t-117 -180z" />
<glyph unicode="&#xbb;" horiz-adv-x="1220" d="M109 455v163l272 127l-272 125v158l413 -203v-157zM109 455zM719 455v163l272 127l-272 125v158l413 -203v-157z" />
<glyph unicode="&#xbc;" horiz-adv-x="1656" d="M102 0zM103 0l1198 1470h174l-1204 -1470h-168zM231 1288v131q41 2 67.5 21.5t31.5 50.5h116v-815h-139v612h-76zM1003 184v115l324 496h143v-471h84v-140h-84v-204h-139v204h-328zM1173 324h158v243z" />
<glyph unicode="&#xbd;" horiz-adv-x="1662" d="M102 0zM103 0l1198 1470h174l-1204 -1470h-168zM231 1288v131q41 2 67.5 21.5t31.5 50.5h116v-815h-139v612h-76zM1073 -20v73q0 135 45 219t143 134q29 14 57.5 28.5t50 31.5t35 39.5t13.5 57.5q0 43 -23.5 67.5t-72.5 24.5q-43 0 -80 -18.5t-72 -73.5l-94 125 q88 117 254 117q104 0 167.5 -60.5t63.5 -173.5q0 -59 -16 -102t-44 -73.5t-66 -54.5t-79 -46q-59 -33 -89.5 -74t-34.5 -100h329v-141h-487z" />
<glyph unicode="&#xbe;" horiz-adv-x="1759" d="M102 0zM103 794l120 84q18 -35 46 -54t69 -19q45 0 75 31.5t30 82.5q0 66 -32 95.5t-81 29.5h-60v144h60q80 0 80 92q0 35 -19.5 58.5t-56.5 23.5q-33 0 -48.5 -14.5t-31.5 -39.5l-119 50q6 23 22.5 48t43 46.5t61.5 35t76 13.5q86 0 143.5 -54.5t57.5 -158.5 q0 -59 -15.5 -98t-50.5 -66q43 -23 77 -77t34 -128q0 -111 -64.5 -183.5t-181.5 -72.5q-86 0 -142.5 33t-92.5 98zM205 0l1198 1470h174l-1204 -1470h-168zM1106 184v115l324 496h143v-471h84v-140h-84v-204h-139v204h-328zM1276 324h158v243z" />
<glyph unicode="&#xbf;" horiz-adv-x="929" d="M78 160q0 68 18.5 122t49 100t70.5 87t83 80q39 35 59.5 67.5t29.5 67.5t12 76t6 90h221v-21q0 -135 -44 -241.5t-126 -181.5q-43 -41 -72 -69t-45 -53.5t-23.5 -54t-7.5 -69.5q0 -76 41 -118t113 -42q88 0 159.5 28.5t125.5 96.5l110 -182q-66 -88 -165 -128t-234 -40 q-86 0 -156 25.5t-120 74.5t-77.5 121t-27.5 164zM393 1118q0 59 34 103.5t87 44.5q51 0 88 -44t37 -104q0 -63 -37 -106t-88 -43q-53 0 -87 43t-34 106z" />
<glyph unicode="&#xc0;" horiz-adv-x="1196" d="M12 0l434 1470h306l432 -1470h-234l-82 283h-540l-78 -283h-238zM12 0zM293 1833l98 129l307 -293l-67 -92zM389 500h418l-211 747z" />
<glyph unicode="&#xc1;" horiz-adv-x="1196" d="M12 0l434 1470h306l432 -1470h-234l-82 283h-540l-78 -283h-238zM12 0zM389 500h418l-211 747zM498 1669l307 293l98 -129l-337 -256z" />
<glyph unicode="&#xc2;" horiz-adv-x="1196" d="M12 0l434 1470h306l432 -1470h-234l-82 283h-540l-78 -283h-238zM12 0zM289 1645l309 317l309 -317l-67 -80l-242 203l-241 -203zM389 500h418l-211 747z" />
<glyph unicode="&#xc3;" horiz-adv-x="1196" d="M12 0l434 1470h306l432 -1470h-234l-82 283h-540l-78 -283h-238zM12 0zM156 1743q14 51 42 92t61.5 68.5t71.5 43t75 15.5q70 0 121 -29.5t92 -64.5t76.5 -64.5t76.5 -29.5q72 0 108 47t58 129l101 -88q-29 -111 -100.5 -168.5t-157.5 -57.5q-66 0 -115 29t-90 63.5 t-79 63.5t-81 29q-53 0 -94 -45t-66 -121zM389 500h418l-211 747z" />
<glyph unicode="&#xc4;" horiz-adv-x="1196" d="M12 0l434 1470h306l432 -1470h-234l-82 283h-540l-78 -283h-238zM12 0zM283 1778q0 63 30.5 106t84.5 43q47 0 82.5 -43t35.5 -106q0 -59 -35.5 -103.5t-82.5 -44.5q-53 0 -84 44t-31 104zM389 500h418l-211 747zM678 1778q0 63 31 106t84 43q47 0 83 -43t36 -106 q0 -59 -36 -103.5t-83 -44.5q-53 0 -84 44t-31 104z" />
<glyph unicode="&#xc5;" horiz-adv-x="1196" d="M12 0l434 1470h306l432 -1470h-234l-82 283h-540l-78 -283h-238zM12 0zM377 1741q0 45 17.5 85t47 70.5t69.5 48t85 17.5t86 -17.5t71.5 -48t48 -70.5t17.5 -85t-17.5 -85t-48 -70.5t-71.5 -48t-86 -17.5t-85 17.5t-69.5 48t-47 70.5t-17.5 85zM389 500h418l-211 747z M494 1741q0 -45 28.5 -75t73.5 -30q43 0 74 30t31 75q0 41 -31 70.5t-74 29.5q-45 0 -73.5 -29.5t-28.5 -70.5z" />
<glyph unicode="&#xc6;" horiz-adv-x="1673" d="M12 0l434 1470h1113v-219h-639l41 -389h387v-217h-365l45 -428h531v-217h-730l-30 283h-473l-76 -283h-238zM389 500h387l-78 751h-100z" />
<glyph unicode="&#xc7;" horiz-adv-x="1282" d="M102 0zM102 735q0 160 41 298t118 239.5t186.5 160t248.5 58.5q338 0 492 -266l-184 -123q-53 86 -122 120.5t-186 34.5q-86 0 -154.5 -36.5t-116.5 -105t-73.5 -165t-25.5 -215.5q0 -111 27.5 -206t78.5 -164.5t120 -109.5t153 -40q106 0 172.5 39t115.5 94l181 -121 q-162 -248 -478 -247q-131 0 -239.5 57t-187.5 157.5t-123 238.5t-44 302zM582 -193q0 61 32.5 96.5t86.5 35.5q45 0 81.5 -35t36.5 -97q0 -123 -47 -197.5t-151 -86.5v33q27 6 46 13t31.5 19.5t19.5 33t11 54.5h-34q-53 0 -83 36t-30 95z" />
<glyph unicode="&#xc8;" horiz-adv-x="1021" d="M123 0v1470h784v-219h-565v-389h354v-217h-354v-428h565v-217h-784zM123 0zM225 1833l98 129l307 -293l-67 -92z" />
<glyph unicode="&#xc9;" horiz-adv-x="1021" d="M123 0v1470h784v-219h-565v-389h354v-217h-354v-428h565v-217h-784zM123 0zM430 1669l307 293l98 -129l-337 -256z" />
<glyph unicode="&#xca;" horiz-adv-x="1021" d="M123 0v1470h784v-219h-565v-389h354v-217h-354v-428h565v-217h-784zM123 0zM221 1645l309 317l309 -317l-67 -80l-242 203l-241 -203z" />
<glyph unicode="&#xcb;" horiz-adv-x="1021" d="M123 0v1470h784v-219h-565v-389h354v-217h-354v-428h565v-217h-784zM123 0zM217 1778q0 63 30.5 106t84.5 43q47 0 82.5 -43t35.5 -106q0 -59 -35.5 -103.5t-82.5 -44.5q-53 0 -84 44t-31 104zM612 1778q0 63 31 106t84 43q47 0 83 -43t36 -106q0 -59 -36 -103.5 t-83 -44.5q-53 0 -84 44t-31 104z" />
<glyph unicode="&#xcc;" horiz-adv-x="481" d="M-61 1833l98 129l307 -293l-67 -92zM0 0zM131 0v1470h219v-1470h-219z" />
<glyph unicode="&#xcd;" horiz-adv-x="481" d="M131 0v1470h219v-1470h-219zM131 0zM139 1669l307 293l98 -129l-337 -256z" />
<glyph unicode="&#xce;" horiz-adv-x="481" d="M-65 1645l309 317l309 -317l-67 -80l-242 203l-241 -203zM0 0zM131 0v1470h219v-1470h-219z" />
<glyph unicode="&#xcf;" horiz-adv-x="481" d="M-72 1778q0 63 30.5 106t84.5 43q47 0 82.5 -43t35.5 -106q0 -59 -35.5 -103.5t-82.5 -44.5q-53 0 -84 44t-31 104zM0 0zM131 0v1470h219v-1470h-219zM323 1778q0 63 31 106t84 43q47 0 83 -43t36 -106q0 -59 -36 -103.5t-83 -44.5q-53 0 -84 44t-31 104z" />
<glyph unicode="&#xd0;" horiz-adv-x="1310" d="M37 645v217h86v608h412q154 0 280.5 -54t216.5 -151.5t140.5 -231.5t50.5 -292q0 -172 -53.5 -310t-146.5 -233.5t-222 -146.5t-279 -51h-399v645h-86zM342 221h147q119 0 213.5 38t160 107.5t101 164t35.5 208.5q0 117 -32.5 211t-97 161t-160 103.5t-220.5 36.5h-147 v-389h305v-217h-305v-424z" />
<glyph unicode="&#xd1;" horiz-adv-x="1267" d="M123 0v1470h270l533 -1048v1048h219v-1470h-250l-555 1094v-1094h-217zM123 0zM193 1743q14 51 42 92t61.5 68.5t71.5 43t75 15.5q70 0 121 -29.5t92 -64.5t76.5 -64.5t76.5 -29.5q72 0 108 47t58 129l101 -88q-29 -111 -100.5 -168.5t-157.5 -57.5q-66 0 -115 29 t-90 63.5t-79 63.5t-81 29q-53 0 -94 -45t-66 -121z" />
<glyph unicode="&#xd2;" horiz-adv-x="1384" d="M102 0zM102 735q0 178 43 318.5t121 238t186.5 148.5t239.5 51t239.5 -51t186.5 -148.5t121 -238t43 -318.5q0 -176 -43 -316t-121 -237.5t-186.5 -149.5t-239.5 -52t-239.5 52t-186.5 149.5t-121 237.5t-43 316zM317 735q0 -133 29 -232.5t80 -165t118.5 -97 t147.5 -31.5t147.5 31.5t119 97t80 165t28.5 232.5q0 268 -100.5 398.5t-274.5 130.5t-274.5 -130t-100.5 -399zM387 1833l98 129l307 -293l-67 -92z" />
<glyph unicode="&#xd3;" horiz-adv-x="1384" d="M102 0zM102 735q0 178 43 318.5t121 238t186.5 148.5t239.5 51t239.5 -51t186.5 -148.5t121 -238t43 -318.5q0 -176 -43 -316t-121 -237.5t-186.5 -149.5t-239.5 -52t-239.5 52t-186.5 149.5t-121 237.5t-43 316zM317 735q0 -133 29 -232.5t80 -165t118.5 -97 t147.5 -31.5t147.5 31.5t119 97t80 165t28.5 232.5q0 268 -100.5 398.5t-274.5 130.5t-274.5 -130t-100.5 -399zM592 1669l307 293l98 -129l-337 -256z" />
<glyph unicode="&#xd4;" horiz-adv-x="1384" d="M102 0zM102 735q0 178 43 318.5t121 238t186.5 148.5t239.5 51t239.5 -51t186.5 -148.5t121 -238t43 -318.5q0 -176 -43 -316t-121 -237.5t-186.5 -149.5t-239.5 -52t-239.5 52t-186.5 149.5t-121 237.5t-43 316zM317 735q0 -133 29 -232.5t80 -165t118.5 -97 t147.5 -31.5t147.5 31.5t119 97t80 165t28.5 232.5q0 268 -100.5 398.5t-274.5 130.5t-274.5 -130t-100.5 -399zM383 1645l309 317l309 -317l-67 -80l-242 203l-241 -203z" />
<glyph unicode="&#xd5;" horiz-adv-x="1384" d="M102 0zM102 735q0 178 43 318.5t121 238t186.5 148.5t239.5 51t239.5 -51t186.5 -148.5t121 -238t43 -318.5q0 -176 -43 -316t-121 -237.5t-186.5 -149.5t-239.5 -52t-239.5 52t-186.5 149.5t-121 237.5t-43 316zM250 1743q14 51 42 92t61.5 68.5t71.5 43t75 15.5 q70 0 121 -29.5t92 -64.5t76.5 -64.5t76.5 -29.5q72 0 108 47t58 129l101 -88q-29 -111 -100.5 -168.5t-157.5 -57.5q-66 0 -115 29t-90 63.5t-79 63.5t-81 29q-53 0 -94 -45t-66 -121zM317 735q0 -133 29 -232.5t80 -165t118.5 -97t147.5 -31.5t147.5 31.5t119 97t80 165 t28.5 232.5q0 268 -100.5 398.5t-274.5 130.5t-274.5 -130t-100.5 -399z" />
<glyph unicode="&#xd6;" horiz-adv-x="1384" d="M102 0zM102 735q0 178 43 318.5t121 238t186.5 148.5t239.5 51t239.5 -51t186.5 -148.5t121 -238t43 -318.5q0 -176 -43 -316t-121 -237.5t-186.5 -149.5t-239.5 -52t-239.5 52t-186.5 149.5t-121 237.5t-43 316zM317 735q0 -133 29 -232.5t80 -165t118.5 -97 t147.5 -31.5t147.5 31.5t119 97t80 165t28.5 232.5q0 268 -100.5 398.5t-274.5 130.5t-274.5 -130t-100.5 -399zM377 1778q0 63 30.5 106t84.5 43q47 0 82.5 -43t35.5 -106q0 -59 -35.5 -103.5t-82.5 -44.5q-53 0 -84 44t-31 104zM772 1778q0 63 31 106t84 43q47 0 83 -43 t36 -106q0 -59 -36 -103.5t-83 -44.5q-53 0 -84 44t-31 104z" />
<glyph unicode="&#xd7;" d="M150 424l301 301l-301 301l133 131l301 -301l299 301l131 -133l-299 -299l299 -299l-131 -133l-299 301l-301 -301z" />
<glyph unicode="&#xd8;" horiz-adv-x="1382" d="M102 735q0 178 43 318.5t121 238t186.5 148.5t239.5 51q143 0 264 -66l74 146h178l-125 -242q94 -98 146.5 -246.5t52.5 -347.5q0 -176 -43 -316t-121 -237.5t-186.5 -149.5t-239.5 -52q-147 0 -268 65l-76 -147h-174l125 243q-94 98 -145.5 247t-51.5 347zM317 735 q0 -123 25 -216t68 -159l444 867q-72 37 -162 37q-174 0 -274.5 -130.5t-100.5 -398.5zM528 250q72 -41 164 -41q80 0 147.5 31.5t119 97t80 165t28.5 232.5q0 125 -23.5 221.5t-68.5 161.5z" />
<glyph unicode="&#xd9;" horiz-adv-x="1230" d="M115 0zM115 528v942h217v-942q0 -184 78.5 -257.5t214.5 -73.5q129 0 201.5 73.5t72.5 257.5v942h217v-942q0 -123 -31.5 -224t-94 -174t-154.5 -111.5t-211 -38.5q-121 0 -215.5 38.5t-160 110.5t-100 173t-34.5 226zM309 1833l98 129l307 -293l-67 -92z" />
<glyph unicode="&#xda;" horiz-adv-x="1230" d="M115 0zM115 528v942h217v-942q0 -184 78.5 -257.5t214.5 -73.5q129 0 201.5 73.5t72.5 257.5v942h217v-942q0 -123 -31.5 -224t-94 -174t-154.5 -111.5t-211 -38.5q-121 0 -215.5 38.5t-160 110.5t-100 173t-34.5 226zM514 1669l307 293l98 -129l-337 -256z" />
<glyph unicode="&#xdb;" horiz-adv-x="1230" d="M115 0zM115 528v942h217v-942q0 -184 78.5 -257.5t214.5 -73.5q129 0 201.5 73.5t72.5 257.5v942h217v-942q0 -123 -31.5 -224t-94 -174t-154.5 -111.5t-211 -38.5q-121 0 -215.5 38.5t-160 110.5t-100 173t-34.5 226zM305 1645l309 317l309 -317l-67 -80l-242 203 l-241 -203z" />
<glyph unicode="&#xdc;" horiz-adv-x="1230" d="M115 0zM115 528v942h217v-942q0 -184 78.5 -257.5t214.5 -73.5q129 0 201.5 73.5t72.5 257.5v942h217v-942q0 -123 -31.5 -224t-94 -174t-154.5 -111.5t-211 -38.5q-121 0 -215.5 38.5t-160 110.5t-100 173t-34.5 226zM301 1778q0 63 30.5 106t84.5 43q47 0 82.5 -43 t35.5 -106q0 -59 -35.5 -103.5t-82.5 -44.5q-53 0 -84 44t-31 104zM696 1778q0 63 31 106t84 43q47 0 83 -43t36 -106q0 -59 -36 -103.5t-83 -44.5q-53 0 -84 44t-31 104z" />
<glyph unicode="&#xdd;" horiz-adv-x="1126" d="M8 0zM8 1470h248l309 -690l309 690h244l-430 -909v-561h-248v557zM463 1669l307 293l98 -129l-337 -256z" />
<glyph unicode="&#xde;" horiz-adv-x="1079" d="M123 0v1470h219v-233h162q117 0 215 -29.5t168.5 -88t110.5 -143.5t40 -198q0 -121 -40 -214t-111.5 -157.5t-172 -98.5t-218.5 -34h-154v-274h-219zM342 492h145q94 0 157 17t98.5 53t50 88t14.5 122t-24.5 118t-68.5 76.5t-105.5 41t-135.5 12.5h-131v-528z" />
<glyph unicode="&#xdf;" horiz-adv-x="1169" d="M119 0v1120q0 190 109.5 304t312.5 114q223 0 326.5 -102.5t103.5 -282.5q0 -129 -45 -211t-123 -115q125 -31 198.5 -129t73.5 -233q0 -100 -22.5 -188.5t-71.5 -155t-128 -104t-191 -37.5q-98 0 -172 25.5t-97 53.5l137 185q16 -23 55.5 -35t78.5 -12q98 0 146 68.5 t48 178.5q0 125 -76.5 190.5t-238.5 65.5v199q123 0 167 63.5t44 163.5q0 92 -48.5 142.5t-146.5 50.5q-119 0 -171 -50t-52 -167v-1102h-217z" />
<glyph unicode="&#xe0;" horiz-adv-x="1019" d="M61 0zM61 385q0 190 110 291.5t288 101.5q82 0 136 -23.5t85 -56.5q0 72 -14.5 118t-42 71.5t-68.5 36t-92 10.5q-59 0 -103.5 -19.5t-76.5 -50.5l-101 168q53 57 133 89t181 32q88 0 162.5 -29.5t128 -85t83 -133.5t29.5 -174v-731h-217v82q-29 -35 -89.5 -68.5 t-172.5 -33.5q-76 0 -141.5 28.5t-113.5 80.5t-76 128t-28 168zM205 1495l98 129l307 -293l-67 -92zM283 389q0 -41 16 -74.5t44 -58.5t63.5 -39t76.5 -14q27 0 56.5 7t57.5 21.5t49.5 33t33.5 42.5v187q-23 35 -72 60.5t-100 25.5q-225 0 -225 -191z" />
<glyph unicode="&#xe1;" horiz-adv-x="1019" d="M61 0zM61 385q0 190 110 291.5t288 101.5q82 0 136 -23.5t85 -56.5q0 72 -14.5 118t-42 71.5t-68.5 36t-92 10.5q-59 0 -103.5 -19.5t-76.5 -50.5l-101 168q53 57 133 89t181 32q88 0 162.5 -29.5t128 -85t83 -133.5t29.5 -174v-731h-217v82q-29 -35 -89.5 -68.5 t-172.5 -33.5q-76 0 -141.5 28.5t-113.5 80.5t-76 128t-28 168zM283 389q0 -41 16 -74.5t44 -58.5t63.5 -39t76.5 -14q27 0 56.5 7t57.5 21.5t49.5 33t33.5 42.5v187q-23 35 -72 60.5t-100 25.5q-225 0 -225 -191zM410 1331l307 293l98 -129l-337 -256z" />
<glyph unicode="&#xe2;" horiz-adv-x="1019" d="M61 0zM61 385q0 190 110 291.5t288 101.5q82 0 136 -23.5t85 -56.5q0 72 -14.5 118t-42 71.5t-68.5 36t-92 10.5q-59 0 -103.5 -19.5t-76.5 -50.5l-101 168q53 57 133 89t181 32q88 0 162.5 -29.5t128 -85t83 -133.5t29.5 -174v-731h-217v82q-29 -35 -89.5 -68.5 t-172.5 -33.5q-76 0 -141.5 28.5t-113.5 80.5t-76 128t-28 168zM201 1307l309 317l309 -317l-67 -80l-242 203l-241 -203zM283 389q0 -41 16 -74.5t44 -58.5t63.5 -39t76.5 -14q27 0 56.5 7t57.5 21.5t49.5 33t33.5 42.5v187q-23 35 -72 60.5t-100 25.5q-225 0 -225 -191z " />
<glyph unicode="&#xe3;" horiz-adv-x="1019" d="M61 0zM61 385q0 190 110 291.5t288 101.5q82 0 136 -23.5t85 -56.5q0 72 -14.5 118t-42 71.5t-68.5 36t-92 10.5q-59 0 -103.5 -19.5t-76.5 -50.5l-101 168q53 57 133 89t181 32q88 0 162.5 -29.5t128 -85t83 -133.5t29.5 -174v-731h-217v82q-29 -35 -89.5 -68.5 t-172.5 -33.5q-76 0 -141.5 28.5t-113.5 80.5t-76 128t-28 168zM72 1405q14 51 42 92t61.5 68.5t71.5 43t75 15.5q70 0 121 -29.5t92 -64.5t76.5 -64.5t76.5 -29.5q72 0 108 47t58 129l101 -88q-29 -111 -100.5 -168.5t-157.5 -57.5q-66 0 -115 29t-90 63.5t-79 63.5t-81 29 q-53 0 -94 -45t-66 -121zM283 389q0 -41 16 -74.5t44 -58.5t63.5 -39t76.5 -14q27 0 56.5 7t57.5 21.5t49.5 33t33.5 42.5v187q-23 35 -72 60.5t-100 25.5q-225 0 -225 -191z" />
<glyph unicode="&#xe4;" horiz-adv-x="1019" d="M61 0zM61 385q0 190 110 291.5t288 101.5q82 0 136 -23.5t85 -56.5q0 72 -14.5 118t-42 71.5t-68.5 36t-92 10.5q-59 0 -103.5 -19.5t-76.5 -50.5l-101 168q53 57 133 89t181 32q88 0 162.5 -29.5t128 -85t83 -133.5t29.5 -174v-731h-217v82q-29 -35 -89.5 -68.5 t-172.5 -33.5q-76 0 -141.5 28.5t-113.5 80.5t-76 128t-28 168zM195 1440q0 63 30.5 106t84.5 43q47 0 82.5 -43t35.5 -106q0 -59 -35.5 -103.5t-82.5 -44.5q-53 0 -84 44t-31 104zM283 389q0 -41 16 -74.5t44 -58.5t63.5 -39t76.5 -14q27 0 56.5 7t57.5 21.5t49.5 33 t33.5 42.5v187q-23 35 -72 60.5t-100 25.5q-225 0 -225 -191zM590 1440q0 63 31 106t84 43q47 0 83 -43t36 -106q0 -59 -36 -103.5t-83 -44.5q-53 0 -84 44t-31 104z" />
<glyph unicode="&#xe5;" horiz-adv-x="1019" d="M61 0zM61 385q0 190 110 291.5t288 101.5q82 0 136 -23.5t85 -56.5q0 72 -14.5 118t-42 71.5t-68.5 36t-92 10.5q-59 0 -103.5 -19.5t-76.5 -50.5l-101 168q53 57 133 89t181 32q88 0 162.5 -29.5t128 -85t83 -133.5t29.5 -174v-731h-217v82q-29 -35 -89.5 -68.5 t-172.5 -33.5q-76 0 -141.5 28.5t-113.5 80.5t-76 128t-28 168zM283 389q0 -41 16 -74.5t44 -58.5t63.5 -39t76.5 -14q27 0 56.5 7t57.5 21.5t49.5 33t33.5 42.5v187q-23 35 -72 60.5t-100 25.5q-225 0 -225 -191zM289 1403q0 45 17.5 85t47 70.5t69.5 48t85 17.5t86 -17.5 t71.5 -48t48 -70.5t17.5 -85t-17.5 -85t-48 -70.5t-71.5 -48t-86 -17.5t-85 17.5t-69.5 48t-47 70.5t-17.5 85zM406 1403q0 -45 28.5 -75t73.5 -30q43 0 74 30t31 75q0 41 -31 70.5t-74 29.5q-45 0 -73.5 -29.5t-28.5 -70.5z" />
<glyph unicode="&#xe6;" horiz-adv-x="1677" d="M61 385q0 190 110 291.5t288 101.5q82 0 136 -23.5t85 -56.5q0 72 -14.5 118t-42 71.5t-68.5 36t-92 10.5q-59 0 -103.5 -19.5t-76.5 -50.5l-101 168q53 57 133 89t181 32q104 0 185 -39t134 -110q59 72 143 110.5t191 38.5q98 0 180 -35t140.5 -105.5t91 -178 t32.5 -250.5q0 -51 -2 -89t-4 -51h-684q0 -53 19.5 -97t52.5 -76.5t78 -50t98 -17.5q59 0 102 19.5t76 58.5l148 -136q-66 -86 -150 -125.5t-182 -39.5q-258 0 -373 186q-57 -86 -140 -136t-212 -50q-76 0 -141.5 28.5t-113.5 80.5t-76 128t-28 168zM283 389q0 -41 16 -74.5 t44 -58.5t63.5 -39t76.5 -14q78 0 130.5 41t88.5 100q-8 35 -13 73t-7 79q-41 49 -89 66.5t-85 17.5q-225 0 -225 -191zM903 659h469q-4 129 -65.5 204t-159.5 75q-111 0 -175.5 -78t-68.5 -201z" />
<glyph unicode="&#xe7;" horiz-adv-x="987" d="M102 0zM102 575q0 125 35 231.5t97.5 183.5t147.5 120t187 43q123 0 207 -47t125 -113l-168 -135q-29 35 -66.5 53.5t-97.5 18.5q-111 0 -177 -98.5t-66 -258.5q0 -371 254 -370q47 0 84.5 21.5t68.5 56.5l180 -134q-135 -167 -344 -167q-109 0 -195.5 43t-147 120.5 t-92.5 187t-32 244.5zM420 -193q0 61 32.5 96.5t86.5 35.5q45 0 81.5 -35t36.5 -97q0 -123 -47 -197.5t-151 -86.5v33q27 6 46 13t31.5 19.5t19.5 33t11 54.5h-34q-53 0 -83 36t-30 95z" />
<glyph unicode="&#xe8;" horiz-adv-x="1099" d="M102 0zM102 557q0 137 33 247.5t93.5 188.5t147.5 119t195 41q98 0 180.5 -35t140.5 -105.5t91 -178t33 -250.5q0 -51 -2 -89t-4 -51h-684q0 -53 19.5 -97t52 -76.5t77.5 -50t98 -17.5q59 0 102.5 19.5t76.5 58.5l147 -136q-66 -86 -149.5 -125.5t-182.5 -39.5 q-229 0 -347 149.5t-118 427.5zM264 1495l98 129l307 -293l-67 -92zM326 659h469q-4 129 -66 204t-160 75q-111 0 -175 -78t-68 -201z" />
<glyph unicode="&#xe9;" horiz-adv-x="1099" d="M102 0zM102 557q0 137 33 247.5t93.5 188.5t147.5 119t195 41q98 0 180.5 -35t140.5 -105.5t91 -178t33 -250.5q0 -51 -2 -89t-4 -51h-684q0 -53 19.5 -97t52 -76.5t77.5 -50t98 -17.5q59 0 102.5 19.5t76.5 58.5l147 -136q-66 -86 -149.5 -125.5t-182.5 -39.5 q-229 0 -347 149.5t-118 427.5zM326 659h469q-4 129 -66 204t-160 75q-111 0 -175 -78t-68 -201zM469 1331l307 293l98 -129l-337 -256z" />
<glyph unicode="&#xea;" horiz-adv-x="1099" d="M102 0zM102 557q0 137 33 247.5t93.5 188.5t147.5 119t195 41q98 0 180.5 -35t140.5 -105.5t91 -178t33 -250.5q0 -51 -2 -89t-4 -51h-684q0 -53 19.5 -97t52 -76.5t77.5 -50t98 -17.5q59 0 102.5 19.5t76.5 58.5l147 -136q-66 -86 -149.5 -125.5t-182.5 -39.5 q-229 0 -347 149.5t-118 427.5zM260 1307l309 317l309 -317l-67 -80l-242 203l-241 -203zM326 659h469q-4 129 -66 204t-160 75q-111 0 -175 -78t-68 -201z" />
<glyph unicode="&#xeb;" horiz-adv-x="1099" d="M102 0zM102 557q0 137 33 247.5t93.5 188.5t147.5 119t195 41q98 0 180.5 -35t140.5 -105.5t91 -178t33 -250.5q0 -51 -2 -89t-4 -51h-684q0 -53 19.5 -97t52 -76.5t77.5 -50t98 -17.5q59 0 102.5 19.5t76.5 58.5l147 -136q-66 -86 -149.5 -125.5t-182.5 -39.5 q-229 0 -347 149.5t-118 427.5zM256 1440q0 63 30.5 106t84.5 43q47 0 82.5 -43t35.5 -106q0 -59 -35.5 -103.5t-82.5 -44.5q-53 0 -84 44t-31 104zM326 659h469q-4 129 -66 204t-160 75q-111 0 -175 -78t-68 -201zM651 1440q0 63 31 106t84 43q47 0 83 -43t36 -106 q0 -59 -36 -103.5t-83 -44.5q-53 0 -84 44t-31 104z" />
<glyph unicode="&#xec;" horiz-adv-x="464" d="M-70 1495l98 129l307 -293l-67 -92zM0 0zM123 0v1133h219v-1133h-219z" />
<glyph unicode="&#xed;" horiz-adv-x="464" d="M123 0v1133h219v-1133h-219zM123 0zM131 1331l307 293l98 -129l-337 -256z" />
<glyph unicode="&#xee;" horiz-adv-x="514" d="M-49 1307l309 317l309 -317l-67 -80l-242 203l-241 -203zM0 0zM148 0v1133h219v-1133h-219z" />
<glyph unicode="&#xef;" horiz-adv-x="579" d="M-22 1440q0 63 30.5 106t84.5 43q47 0 82.5 -43t35.5 -106q0 -59 -35.5 -103.5t-82.5 -44.5q-53 0 -84 44t-31 104zM0 0zM180 0v1133h219v-1133h-219zM373 1440q0 63 31 106t84 43q47 0 83 -43t36 -106q0 -59 -36 -103.5t-83 -44.5q-53 0 -84 44t-31 104z" />
<glyph unicode="&#xf0;" horiz-adv-x="1079" d="M102 481q0 104 29 190.5t80 149t121.5 96t154.5 33.5q37 0 76 -12t76 -33.5t68.5 -51.5t52.5 -62q-29 129 -70 218t-110 148l-211 -182l-72 82l190 164q-61 29 -157 51l35 205q162 -8 290 -113l170 147l70 -81l-162 -140q117 -131 180.5 -323.5t63.5 -409.5 q0 -135 -29.5 -242.5t-85 -182.5t-133.5 -113.5t-176 -38.5q-205 0 -328 125.5t-123 375.5zM299 465q0 -129 67.5 -199.5t174.5 -70.5q104 0 162.5 71.5t58.5 200.5t-64 202.5t-170 73.5q-100 0 -164.5 -74.5t-64.5 -203.5z" />
<glyph unicode="&#xf1;" horiz-adv-x="1062" d="M90 0zM90 1405q14 51 42 92t61.5 68.5t71.5 43t75 15.5q70 0 121 -29.5t92 -64.5t76.5 -64.5t76.5 -29.5q72 0 108 47t58 129l101 -88q-29 -111 -100.5 -168.5t-157.5 -57.5q-66 0 -115 29t-90 63.5t-79 63.5t-81 29q-53 0 -94 -45t-66 -121zM123 0v1133h219v-91 q18 39 87 75t167 36q80 0 146.5 -27.5t115.5 -80t76 -130t27 -176.5v-739h-218v717q0 113 -57 167t-143 54q-78 0 -130.5 -41t-70.5 -127v-770h-219z" />
<glyph unicode="&#xf2;" horiz-adv-x="1122" d="M102 0zM102 567q0 135 31 244t89.5 184.5t143 116.5t195.5 41q109 0 195 -41t144 -116.5t89 -184.5t31 -244t-31 -244.5t-89 -185.5t-144 -116.5t-195 -40.5t-194.5 40.5t-144 116.5t-89.5 185.5t-31 244.5zM256 1495l98 129l307 -293l-67 -92zM322 567q0 -356 239 -356 q240 0 240 356q0 355 -240 355t-239 -355z" />
<glyph unicode="&#xf3;" horiz-adv-x="1122" d="M102 0zM102 567q0 135 31 244t89.5 184.5t143 116.5t195.5 41q109 0 195 -41t144 -116.5t89 -184.5t31 -244t-31 -244.5t-89 -185.5t-144 -116.5t-195 -40.5t-194.5 40.5t-144 116.5t-89.5 185.5t-31 244.5zM322 567q0 -356 239 -356q240 0 240 356q0 355 -240 355 t-239 -355zM461 1331l307 293l98 -129l-337 -256z" />
<glyph unicode="&#xf4;" horiz-adv-x="1122" d="M102 0zM102 567q0 135 31 244t89.5 184.5t143 116.5t195.5 41q109 0 195 -41t144 -116.5t89 -184.5t31 -244t-31 -244.5t-89 -185.5t-144 -116.5t-195 -40.5t-194.5 40.5t-144 116.5t-89.5 185.5t-31 244.5zM252 1307l309 317l309 -317l-67 -80l-242 203l-241 -203z M322 567q0 -356 239 -356q240 0 240 356q0 355 -240 355t-239 -355z" />
<glyph unicode="&#xf5;" horiz-adv-x="1122" d="M102 0zM102 567q0 135 31 244t89.5 184.5t143 116.5t195.5 41q109 0 195 -41t144 -116.5t89 -184.5t31 -244t-31 -244.5t-89 -185.5t-144 -116.5t-195 -40.5t-194.5 40.5t-144 116.5t-89.5 185.5t-31 244.5zM119 1405q14 51 42 92t61.5 68.5t71.5 43t75 15.5 q70 0 121 -29.5t92 -64.5t76.5 -64.5t76.5 -29.5q72 0 108 47t58 129l101 -88q-29 -111 -100.5 -168.5t-157.5 -57.5q-66 0 -115 29t-90 63.5t-79 63.5t-81 29q-53 0 -94 -45t-66 -121zM322 567q0 -356 239 -356q240 0 240 356q0 355 -240 355t-239 -355z" />
<glyph unicode="&#xf6;" horiz-adv-x="1122" d="M102 0zM102 567q0 135 31 244t89.5 184.5t143 116.5t195.5 41q109 0 195 -41t144 -116.5t89 -184.5t31 -244t-31 -244.5t-89 -185.5t-144 -116.5t-195 -40.5t-194.5 40.5t-144 116.5t-89.5 185.5t-31 244.5zM246 1440q0 63 30.5 106t84.5 43q47 0 82.5 -43t35.5 -106 q0 -59 -35.5 -103.5t-82.5 -44.5q-53 0 -84 44t-31 104zM322 567q0 -356 239 -356q240 0 240 356q0 355 -240 355t-239 -355zM641 1440q0 63 31 106t84 43q47 0 83 -43t36 -106q0 -59 -36 -103.5t-83 -44.5q-53 0 -84 44t-31 104z" />
<glyph unicode="&#xf7;" d="M63 90zM63 633v186h1037v-186h-1037zM464 237q0 63 31 106.5t84 43.5q47 0 83 -43t36 -107q0 -59 -36 -103t-83 -44q-53 0 -84 44t-31 103zM464 1212q0 63 31 106.5t84 43.5q47 0 83 -43t36 -107q0 -59 -36 -103t-83 -44q-53 0 -84 44t-31 103z" />
<glyph unicode="&#xf8;" horiz-adv-x="1122" d="M102 567q0 135 31 244t89.5 184.5t143 116.5t195.5 41q115 0 205 -47l68 129h149l-109 -211q72 -76 109 -191.5t37 -265.5q0 -135 -31 -244.5t-89 -185.5t-144 -116.5t-195 -40.5q-57 0 -107.5 11t-95.5 32l-63 -125h-150l107 206q-150 152 -150 463zM322 567 q0 -156 43 -241l297 575q-40 21 -101 21q-240 0 -239 -355zM465 229q43 -18 96 -18q240 0 240 356q0 141 -41 234z" />
<glyph unicode="&#xf9;" horiz-adv-x="1071" d="M111 0zM111 393v740h217v-707q0 -113 55 -167t127 -54q182 0 219 168v760h219v-1133h-219v90q-18 -39 -89 -74.5t-175 -35.5q-76 0 -140.5 27.5t-112.5 79.5t-74.5 130t-26.5 176zM229 1495l98 129l307 -293l-67 -92z" />
<glyph unicode="&#xfa;" horiz-adv-x="1071" d="M111 0zM111 393v740h217v-707q0 -113 55 -167t127 -54q182 0 219 168v760h219v-1133h-219v90q-18 -39 -89 -74.5t-175 -35.5q-76 0 -140.5 27.5t-112.5 79.5t-74.5 130t-26.5 176zM434 1331l307 293l98 -129l-337 -256z" />
<glyph unicode="&#xfb;" horiz-adv-x="1071" d="M111 0zM111 393v740h217v-707q0 -113 55 -167t127 -54q182 0 219 168v760h219v-1133h-219v90q-18 -39 -89 -74.5t-175 -35.5q-76 0 -140.5 27.5t-112.5 79.5t-74.5 130t-26.5 176zM225 1307l309 317l309 -317l-67 -80l-242 203l-241 -203z" />
<glyph unicode="&#xfc;" horiz-adv-x="1071" d="M111 0zM111 393v740h217v-707q0 -113 55 -167t127 -54q182 0 219 168v760h219v-1133h-219v90q-18 -39 -89 -74.5t-175 -35.5q-76 0 -140.5 27.5t-112.5 79.5t-74.5 130t-26.5 176zM221 1440q0 63 30.5 106t84.5 43q47 0 82.5 -43t35.5 -106q0 -59 -35.5 -103.5 t-82.5 -44.5q-53 0 -84 44t-31 104zM616 1440q0 63 31 106t84 43q47 0 83 -43t36 -106q0 -59 -36 -103.5t-83 -44.5q-53 0 -84 44t-31 104z" />
<glyph unicode="&#xfd;" horiz-adv-x="933" d="M20 0zM20 1133h232l219 -832l211 832h231l-460 -1610h-230l135 473zM367 1331l307 293l98 -129l-337 -256z" />
<glyph unicode="&#xfe;" horiz-adv-x="1122" d="M123 -477v1894l219 94v-462q27 45 89.5 74.5t168.5 29.5q109 0 187.5 -52t131 -133t77 -181.5t24.5 -196.5q0 -139 -32 -252t-88 -192.5t-135 -124t-171 -44.5t-157.5 31t-96.5 82v-473zM340 395q8 -35 28.5 -67.5t48 -59t62.5 -42t74 -15.5q135 0 192.5 103.5 t57.5 283.5q0 61 -13.5 122.5t-43 109t-79 77t-120.5 29.5q-80 0 -133.5 -60.5t-73.5 -148.5v-332z" />
<glyph unicode="&#xff;" horiz-adv-x="933" d="M20 0zM20 1133h232l219 -832l211 832h231l-460 -1610h-230l135 473zM152 1440q0 63 30.5 106t84.5 43q47 0 82.5 -43t35.5 -106q0 -59 -35.5 -103.5t-82.5 -44.5q-53 0 -84 44t-31 104zM547 1440q0 63 31 106t84 43q47 0 83 -43t36 -106q0 -59 -36 -103.5t-83 -44.5 q-53 0 -84 44t-31 104z" />
<glyph unicode="&#x152;" horiz-adv-x="1927" d="M102 735q0 178 43 318.5t121 238t186.5 148.5t239.5 51q207 0 336 -129v108h784v-219h-565v-389h355v-217h-355v-428h565v-217h-784v109q-129 -129 -336 -129q-131 0 -239.5 52t-186.5 149.5t-121 237.5t-43 316zM317 735q0 -133 29 -232.5t80 -165t118.5 -97 t147.5 -31.5q117 0 205 67.5t131 208.5v508q-41 135 -127 203t-209 68q-174 0 -274.5 -130t-100.5 -399z" />
<glyph unicode="&#x153;" horiz-adv-x="1789" d="M102 567q0 135 31 244t89.5 184.5t143.5 116.5t195 41q123 0 210 -51t140 -146q53 94 140.5 145.5t210.5 51.5q98 0 180 -35t140 -105.5t91 -178t33 -250.5q0 -51 -2 -89t-4 -51h-684q0 -53 19.5 -97t52 -76.5t77.5 -50t99 -17.5q59 0 102 19.5t76 58.5l147 -136 q-66 -86 -149.5 -125.5t-182.5 -39.5q-129 0 -215 47t-137 139q-109 -186 -344 -186q-109 0 -194.5 40.5t-144 116.5t-89.5 185.5t-31 244.5zM322 567q0 -356 239 -356q240 0 240 356q0 355 -240 355t-239 -355zM1016 659h469q-4 129 -65.5 204t-159.5 75q-111 0 -175.5 -78 t-68.5 -201z" />
<glyph unicode="&#x178;" horiz-adv-x="1126" d="M8 0zM8 1470h248l309 -690l309 690h244l-430 -909v-561h-248v557zM248 1778q0 63 30.5 106t84.5 43q47 0 82.5 -43t35.5 -106q0 -59 -35.5 -103.5t-82.5 -44.5q-53 0 -84 44t-31 104zM643 1778q0 63 31 106t84 43q47 0 83 -43t36 -106q0 -59 -36 -103.5t-83 -44.5 q-53 0 -84 44t-31 104z" />
<glyph unicode="&#x2c6;" horiz-adv-x="782" d="M82 1307l309 317l309 -317l-67 -80l-242 203l-241 -203z" />
<glyph unicode="&#x2dc;" horiz-adv-x="1046" d="M82 1405q14 51 42 92t61.5 68.5t71.5 43t75 15.5q70 0 121 -29.5t92 -64.5t76.5 -64.5t76.5 -29.5q72 0 108 47t58 129l101 -88q-29 -111 -100.5 -168.5t-157.5 -57.5q-66 0 -115 29t-90 63.5t-79 63.5t-81 29q-53 0 -94 -45t-66 -121z" />
<glyph unicode="&#x2000;" horiz-adv-x="981" />
<glyph unicode="&#x2001;" horiz-adv-x="1962" />
<glyph unicode="&#x2002;" horiz-adv-x="981" />
<glyph unicode="&#x2003;" horiz-adv-x="1962" />
<glyph unicode="&#x2004;" horiz-adv-x="654" />
<glyph unicode="&#x2005;" horiz-adv-x="490" />
<glyph unicode="&#x2006;" horiz-adv-x="327" />
<glyph unicode="&#x2007;" horiz-adv-x="327" />
<glyph unicode="&#x2008;" horiz-adv-x="245" />
<glyph unicode="&#x2009;" horiz-adv-x="392" />
<glyph unicode="&#x200a;" horiz-adv-x="109" />
<glyph unicode="&#x2010;" horiz-adv-x="473" d="M45 686v217h383v-217h-383z" />
<glyph unicode="&#x2011;" horiz-adv-x="473" d="M45 686v217h383v-217h-383z" />
<glyph unicode="&#x2012;" horiz-adv-x="473" d="M45 686v217h383v-217h-383z" />
<glyph unicode="&#x2013;" horiz-adv-x="997" d="M45 686v217h907v-217h-907z" />
<glyph unicode="&#x2014;" horiz-adv-x="1558" d="M45 686v217h1468v-217h-1468z" />
<glyph unicode="&#x2018;" horiz-adv-x="335" d="M53 1296q0 305 189 328v-41q-47 -10 -73 -36.5t-32 -102.5h39q20 0 42 -13.5t38 -34t26.5 -47t10.5 -53.5q0 -59 -38 -103t-85 -44q-53 0 -85 44t-32 103z" />
<glyph unicode="&#x2019;" horiz-adv-x="339" d="M43 1382q0 63 36 105.5t91 42.5q47 0 82 -42t35 -106q0 -135 -47 -223t-146 -102v41q51 8 78 36.5t31 102.5h-33q-55 0 -91 41t-36 104z" />
<glyph unicode="&#x201a;" horiz-adv-x="335" d="M43 147q0 63 34 106.5t87 43.5q43 0 81 -43t38 -107q0 -61 -12.5 -117.5t-38 -100.5t-62.5 -73.5t-86 -37.5v35q53 12 76.5 43.5t32.5 103.5h-37q-53 0 -83 45t-30 102z" />
<glyph unicode="&#x201c;" horiz-adv-x="671" d="M53 1149zM53 1296q0 305 189 328v-41q-47 -10 -73 -36.5t-32 -102.5h39q20 0 42 -13.5t38 -34t26.5 -47t10.5 -53.5q0 -59 -38 -103t-85 -44q-53 0 -85 44t-32 103zM389 1296q0 305 189 328v-41q-47 -10 -73 -36.5t-32 -102.5h39q20 0 42 -13.5t38 -34t26.5 -47 t10.5 -53.5q0 -59 -38 -103t-85 -44q-53 0 -85 44t-32 103z" />
<glyph unicode="&#x201d;" horiz-adv-x="679" d="M43 1057zM43 1382q0 63 36 105.5t91 42.5q47 0 82 -42t35 -106q0 -135 -47 -223t-146 -102v41q51 8 78 36.5t31 102.5h-33q-55 0 -91 41t-36 104zM383 1382q0 63 36 105.5t91 42.5q47 0 82 -42t35 -106q0 -135 -47 -223t-146 -102v41q51 8 78 36.5t31 102.5h-33 q-55 0 -91 41t-36 104z" />
<glyph unicode="&#x201e;" horiz-adv-x="671" d="M43 0zM43 147q0 63 34 106.5t87 43.5q43 0 81 -43t38 -107q0 -61 -12.5 -117.5t-38 -100.5t-62.5 -73.5t-86 -37.5v35q53 12 76.5 43.5t32.5 103.5h-37q-53 0 -83 45t-30 102zM379 147q0 63 34 106.5t87 43.5q43 0 81 -43t38 -107q0 -61 -12.5 -117.5t-38 -100.5 t-62.5 -73.5t-86 -37.5v35q53 12 76.5 43.5t32.5 103.5h-37q-53 0 -83 45t-30 102z" />
<glyph unicode="&#x2022;" horiz-adv-x="872" d="M145 725q0 57 22.5 110.5t62.5 93.5t92.5 63.5t113.5 23.5q59 0 112.5 -23.5t93.5 -63.5t62.5 -93.5t22.5 -110.5q0 -61 -22.5 -114.5t-62.5 -93.5t-93 -62.5t-113 -22.5q-61 0 -113.5 22.5t-92.5 62.5t-62.5 93.5t-22.5 114.5z" />
<glyph unicode="&#x2026;" horiz-adv-x="1826" d="M120 147q0 63 31 106.5t84 43.5q47 0 83 -43t36 -107q0 -59 -36 -103t-83 -44q-53 0 -84 44t-31 103zM121 0zM796 147q0 63 31 106.5t84 43.5q47 0 83 -43t36 -107q0 -59 -36 -103t-83 -44q-53 0 -84 44t-31 103zM1472 147q0 63 31 106.5t84 43.5q47 0 83 -43t36 -107 q0 -59 -36 -103t-83 -44q-53 0 -84 44t-31 103z" />
<glyph unicode="&#x202f;" horiz-adv-x="392" />
<glyph unicode="&#x2039;" horiz-adv-x="610" d="M109 657v158l413 213v-162l-270 -127l270 -127v-157z" />
<glyph unicode="&#x203a;" horiz-adv-x="610" d="M109 455v163l272 127l-272 125v158l413 -203v-157z" />
<glyph unicode="&#x205f;" horiz-adv-x="490" />
<glyph unicode="&#x20ac;" horiz-adv-x="1185" d="M23 463l43 221h63v123h-106l43 213h96q61 215 202.5 343t356.5 128q229 0 381 -129l-115 -238q-57 61 -118.5 91t-147.5 30q-111 0 -190.5 -60.5t-122.5 -164.5h526l-103 -217h-473v-119h416l-106 -221h-256q49 -111 131 -174.5t186 -63.5q63 0 126 27t114 65l145 -190 q-145 -147 -393 -147q-102 0 -190.5 34.5t-160 98t-124.5 152.5t-84 198h-139z" />
<glyph unicode="&#x2122;" horiz-adv-x="1828" d="M72 1300v170h669v-170h-241v-786h-185v786h-243zM905 514v956h217l191 -528l186 528h207v-956h-172v596l-215 -596h-12l-230 596v-596h-172z" />
<glyph unicode="&#x25fc;" horiz-adv-x="1136" d="M0 0v1137h1137v-1137h-1137z" />
<glyph unicode="&#xfb01;" horiz-adv-x="1042" d="M25 0zM25 915v218h108v86q0 150 79 234.5t232 84.5q27 0 52.5 -3t54.5 -7v-199q-23 4 -46.5 7t-47.5 3q-68 0 -92.5 -31.5t-24.5 -88.5v-86h215v-218h-205v-915h-217v915h-108zM689 1395q0 66 31.5 107.5t90.5 41.5q49 0 86 -42t37 -107q0 -59 -38 -102.5t-85 -43.5 q-57 0 -89.5 43t-32.5 103zM701 0v1133h219v-1133h-219z" />
<glyph unicode="&#xfb02;" horiz-adv-x="1040" d="M25 0zM25 915v218h108v86q0 150 79 234.5t232 84.5q27 0 52.5 -3t54.5 -7v-199q-23 4 -46.5 7t-47.5 3q-68 0 -92.5 -31.5t-24.5 -88.5v-86h215v-218h-205v-915h-217v915h-108zM701 0v1417l217 94v-1511h-217z" />
</font>
</defs>
</svg>
